<?xml version="1.0" encoding="utf-8"?>
<!-- Generator: Adobe Illustrator 25.0.0, SVG Export Plug-In . SVG Version: 6.00 Build 0)  -->
<svg version="1.1" id="Layer_1" xmlns="http://www.w3.org/2000/svg" xmlns:xlink="http://www.w3.org/1999/xlink" x="0px" y="0px"
	 viewBox="0 0 3184.9 1190.4" style="enable-background:new 0 0 3184.9 1190.4;" xml:space="preserve">
<style type="text/css">
	.st0{fill:#FFFFFF;}
	.st1{fill:#74402C;}
	.st2{fill:url(#SVGID_1_);}
	.st3{fill:url(#SVGID_2_);}
	.st4{fill:#E3A278;}
</style>
<path class="st0" d="M1062.4,674.5c-0.6,1.8-1.1,3.4-1.6,4.7c-0.4,1.1-0.7,2.3-0.7,3.5c0,0.7,0.2,1.4,0.7,1.9
	c0.5,0.5,1.2,0.9,1.9,1.1c0.8,0.3,1.7,0.5,2.6,0.5c0.9,0.1,1.8,0.1,2.7,0.1h1.2v3.1c-2.1-0.1-4.2-0.2-6.3-0.3s-4.2-0.1-6.3-0.1
	c-1.9,0-3.8,0-5.7,0.1s-3.8,0.2-5.7,0.3v-3.1h0.6c2,0,3.9-0.6,5.5-1.7c1.7-1.3,3-3,3.6-5.1l16.7-48c0.7-2,1.4-4.1,2.2-6.5
	c0.7-2.1,1.3-4.3,1.7-6.5c1.8-0.6,3.6-1.3,5.3-2.2c1.5-0.7,2.9-1.5,4.2-2.3c0.3-0.1,0.6-0.2,0.8-0.2c0.3,0,0.6,0.1,0.7,0.3
	c0.1,0.4,0.3,0.9,0.5,1.3s0.3,0.9,0.5,1.3l19.2,54.7c0.6,1.8,1.3,3.6,1.9,5.5s1.3,3.6,2,5.2c1.2,2.8,3.5,4.2,6.9,4.2h0.6v3.1
	c-2.4-0.1-4.7-0.2-7.1-0.3s-4.8-0.1-7.3-0.1c-2.6,0-5.2,0-7.8,0.1c-2.6,0.1-5.2,0.2-7.9,0.3v-3.1h1.2c0.6,0,1.3,0,2-0.1
	c0.7-0.1,1.4-0.2,2.1-0.4c0.6-0.2,1.2-0.5,1.7-0.9c0.4-0.4,0.7-1,0.7-1.6c-0.1-1-0.3-2-0.6-3c-0.4-1.3-0.9-2.8-1.5-4.5l-4.1-12.1
	h-23.7L1062.4,674.5z M1077.6,628.2h-0.2l-9.7,29.6h19.6L1077.6,628.2z"/>
<path class="st0" d="M1187.8,638c-0.7-2.4-1.7-4.8-2.7-7.2c-1-2.2-2.5-4.2-4.2-5.9c-1.9-1.8-4.2-3.1-6.6-4c-3.2-1.1-6.5-1.5-9.8-1.5
	c-3.9-0.1-7.8,0.7-11.3,2.4c-3.2,1.6-6,3.8-8.2,6.6c-2.3,3-4,6.4-5,10c-1.1,4.1-1.7,8.4-1.7,12.7c0,4.3,0.6,8.7,1.7,12.9
	c1,4,2.8,7.8,5.2,11.2c2.3,3.3,5.4,6,8.9,8c3.9,2.1,8.4,3.1,12.8,3c5.6,0,10.3-1.6,13.8-4.8c3.7-3.4,6.3-7.8,7.5-12.7l2.9,0.4
	c-0.7,2.8-1.2,5.6-1.6,8.5c-0.4,2.8-0.7,5.6-1,8.5c-3.4,1.4-7,2.6-10.7,3.3c-4.4,0.9-8.8,1.4-13.3,1.4c-5.5,0.1-11-0.8-16.3-2.4
	c-4.8-1.5-9.2-4-13-7.3c-3.8-3.4-6.7-7.6-8.6-12.2c-2.2-5.5-3.2-11.3-3.1-17.2c-0.1-5.4,1-10.8,3.3-15.7c2.1-4.5,5.1-8.4,8.8-11.6
	c3.8-3.2,8.2-5.6,12.9-7.2c5-1.7,10.2-2.5,15.4-2.5c2.6,0,5.3,0.2,7.8,0.6c2.2,0.4,4.2,0.9,6.1,1.5c1.9,0.6,3.8,1.1,5.7,1.7
	c2.1,0.7,4.3,1.1,6.5,1.4c-0.1,2.9,0,5.8,0.1,8.7c0.1,2.9,0.4,5.8,0.7,8.7L1187.8,638z"/>
<path class="st0" d="M1213.3,674.5c-0.6,1.8-1.1,3.4-1.6,4.7c-0.4,1.1-0.7,2.3-0.7,3.5c0,0.7,0.2,1.4,0.7,1.9
	c0.5,0.5,1.2,0.9,1.9,1.1c0.8,0.3,1.7,0.5,2.6,0.5c0.9,0.1,1.8,0.1,2.7,0.1h1.1v3.1c-2.1-0.1-4.2-0.2-6.3-0.3
	c-2.1-0.1-4.2-0.1-6.3-0.1c-1.9,0-3.8,0-5.6,0.1s-3.8,0.2-5.7,0.3v-3.1h0.6c2,0,3.9-0.6,5.5-1.7c1.7-1.3,3-3,3.6-5.1l16.7-48
	c0.7-1.9,1.4-4.1,2.2-6.5c0.7-2.1,1.3-4.3,1.7-6.5c1.8-0.6,3.6-1.3,5.3-2.2c1.5-0.7,2.9-1.5,4.2-2.3c0.3-0.1,0.5-0.2,0.8-0.2
	c0.3,0,0.6,0.1,0.7,0.3c0.1,0.4,0.3,0.9,0.5,1.3s0.3,0.9,0.5,1.3l19.2,54.7c0.6,1.8,1.2,3.6,1.9,5.5s1.3,3.6,2,5.2
	c1.2,2.8,3.5,4.2,6.9,4.2h0.6v3.1c-2.4-0.1-4.8-0.2-7.1-0.3s-4.8-0.1-7.3-0.1c-2.6,0-5.2,0-7.8,0.1s-5.2,0.2-7.9,0.3v-3.1h1.2
	c0.6,0,1.3,0,2-0.1c0.7-0.1,1.4-0.2,2.1-0.4c0.6-0.2,1.2-0.5,1.7-0.9c0.5-0.4,0.7-1,0.7-1.6c-0.1-1-0.3-2-0.6-3
	c-0.4-1.3-0.9-2.8-1.5-4.5l-4.1-12.1h-23.7L1213.3,674.5z M1228.6,628.2h-0.2l-9.7,29.6h19.6L1228.6,628.2z"/>
<path class="st0" d="M1272.3,686.3h1.5c0.9,0,1.8-0.1,2.8-0.2c0.9-0.1,1.7-0.4,2.5-0.8c0.7-0.4,1.4-1,1.8-1.8c0.5-1,0.7-2.1,0.7-3.2
	v-54.8c0-1.1-0.2-2.2-0.7-3.2c-0.4-0.8-1-1.4-1.8-1.8c-0.8-0.4-1.6-0.7-2.5-0.8c-0.9-0.1-1.8-0.2-2.8-0.2h-1.5v-3.1
	c1.6,0,4,0.1,7.1,0.2s6.3,0.2,9.7,0.2s6.4-0.1,9.3-0.2s5.3-0.2,7.6-0.2c5.9-0.1,11.7,0.8,17.3,2.6c4.8,1.6,9.3,4.1,13.1,7.4
	c3.6,3.2,6.4,7.1,8.2,11.5c2,4.7,2.9,9.8,2.9,14.8c0,5.1-1,10.1-3.1,14.7c-4,9.1-11.5,16.2-20.7,19.7c-4.8,1.9-9.9,2.6-15,2.2
	c-2.3-0.1-5.2-0.2-8.6-0.3c-3.4-0.1-6.9-0.1-10.4-0.1c-1.8,0-3.6,0-5.3,0s-3.4,0.1-4.9,0.2s-2.9,0.1-4.1,0.2s-2.2,0-2.9,0
	L1272.3,686.3z M1294.9,677.5c0,1.5,0.2,3,0.6,4.4c0.4,1,1.1,1.9,2,2.5c1,0.6,2.2,1,3.4,1.1c1.6,0.2,3.2,0.3,4.9,0.3
	c4.1,0.1,8.1-0.8,11.7-2.6c3.3-1.6,6.1-4,8.4-6.8c2.3-2.9,4.1-6.3,5.1-9.9c1.2-3.8,1.7-7.7,1.7-11.7c0-6.9-0.8-12.6-2.4-17
	c-1.3-4-3.6-7.6-6.6-10.6c-2.8-2.6-6.1-4.4-9.8-5.4c-3.9-1-7.9-1.5-11.9-1.5c-1.2,0-2.4,0-3.6,0.2s-2.4,0.2-3.6,0.4L1294.9,677.5z"
	/>
<path class="st0" d="M1353.7,686.3h1.5c0.9,0,1.8-0.1,2.8-0.2c0.9-0.1,1.7-0.4,2.5-0.8c0.7-0.4,1.4-1,1.8-1.8c0.5-1,0.7-2.1,0.7-3.2
	v-54.8c0-1.1-0.2-2.2-0.7-3.2c-0.4-0.8-1-1.4-1.8-1.8c-0.8-0.4-1.6-0.7-2.5-0.8c-0.9-0.1-1.8-0.2-2.8-0.2h-1.5v-3.1
	c1.6,0,3.4,0,5.5,0s4.3,0.1,6.6,0.2s4.6,0.1,7,0.2s4.7,0,6.9,0s4.4,0,6.8,0s4.8-0.1,7.2-0.2s4.6-0.1,6.8-0.2s4.2,0,6,0
	c-0.1,1.1-0.1,2.4-0.1,3.8v4.3c0,1.4,0,2.8,0.1,4.2s0.1,2.7,0.2,3.8l-3.1,0.8c-0.1-1.6-0.4-3.2-0.7-4.8c-0.3-1.4-0.9-2.8-1.8-3.9
	c-1-1.2-2.3-2.1-3.8-2.6c-2.1-0.7-4.3-1-6.5-0.9h-14.5v27.4h12.4c1.3,0,2.6-0.2,3.8-0.6c1-0.4,1.8-1,2.4-1.8
	c0.6-0.9,1.1-1.9,1.4-2.9c0.3-1.3,0.6-2.5,0.7-3.8h3.1c-0.2,4.1-0.3,8.2-0.3,12.2s0.1,8,0.3,11.9l-3.1,0.6c-0.1-1.5-0.3-2.9-0.5-4.2
	c-0.2-1.2-0.5-2.3-1.1-3.3c-0.5-0.9-1.3-1.6-2.3-2.1c-1.3-0.6-2.8-0.8-4.2-0.7h-12.6v24.4c-0.1,1.4,0.3,2.8,1,3.9
	c0.7,0.9,1.7,1.6,2.8,2c1.3,0.4,2.7,0.7,4.1,0.7c1.5,0.1,3.1,0.1,4.8,0.1c3.1,0,5.8-0.1,8.2-0.3c2.1-0.1,4.1-0.7,6-1.6
	c1.7-0.9,3.2-2.2,4.2-3.8c1.3-2.2,2.3-4.6,2.9-7.1l2.9,0.7c-0.7,2.8-1.3,5.6-1.9,8.3s-1.1,5.5-1.6,8.3c-1.7,0-3.7,0-5.9,0
	s-4.7-0.1-7.2-0.2s-5.1-0.1-7.6-0.2s-5.1,0-7.4,0s-4.9,0-7.5,0s-5.2,0.1-7.7,0.2s-4.9,0.1-7.1,0.2s-4.1,0-5.5,0L1353.7,686.3z"/>
<path class="st0" d="M1468.8,671.2l24.8-54.7c1.6,0,3.3,0.1,5.1,0.2s3.7,0.2,5.6,0.2s3.7-0.1,5.5-0.2s3.7-0.2,5.5-0.2v3.1h-0.9
	c-0.8,0-1.7,0-2.8,0.1c-1.1,0.1-2.1,0.3-3.1,0.6c-0.9,0.3-1.8,0.8-2.6,1.5c-0.7,0.7-1.2,1.7-1.2,2.7c-0.1,1.4,0,2.8,0.1,4.2
	c0.1,1.4,0.3,2.7,0.4,3.9l4,47.9c0,1.1,0.3,2.1,0.7,3.1c0.4,0.7,1,1.3,1.7,1.7c0.9,0.5,1.8,0.7,2.8,0.8c1.1,0.1,2.5,0.2,4.1,0.3v3.1
	c-2.4-0.1-4.9-0.2-7.5-0.3s-5.1-0.1-7.6-0.1c-2.9,0-5.8,0-8.6,0.1s-5.7,0.2-8.6,0.3v-3.1c1.3-0.1,2.5-0.2,3.7-0.3
	c1-0.1,1.9-0.3,2.9-0.6c0.7-0.3,1.4-0.7,1.8-1.3c0.5-0.8,0.7-1.7,0.6-2.7v-2c0-0.7,0-1.7-0.1-3.1l-2.9-44.1h-0.2l-26.7,58.9h-2.5
	l-25.3-57.7h-0.2l-3.6,45.9c-0.1,1.3,0.1,2.6,0.6,3.9c0.3,0.8,0.9,1.6,1.6,2.1c0.9,0.5,1.8,0.8,2.8,0.9c1.1,0.1,2.4,0.2,3.9,0.3h1.3
	v3.1c-2.4-0.1-4.7-0.2-7.1-0.3s-4.7-0.1-7.1-0.1c-2,0-4.1,0-6.2,0.1s-4.2,0.2-6.2,0.3v-3.1h1.5c1.7,0,3.3-0.3,4.9-0.8
	c1.1-0.4,2-1.2,2.7-2.2c0.7-1.1,1.1-2.3,1.3-3.5c0.2-1.4,0.5-3,0.7-4.9l3.1-29.1c0.4-3.8,0.7-7.2,0.9-10.5s0.3-5.8,0.3-8
	c0-1.3-0.2-2.6-0.8-3.7c-0.5-0.9-1.2-1.8-2-2.4c-0.9-0.6-1.9-1.1-2.9-1.3c-1.1-0.3-2.2-0.4-3.3-0.4h-1.4v-3.1c2.2,0,4.3,0.1,6.4,0.2
	s4.2,0.2,6.4,0.2c1.6,0,3.2-0.1,4.7-0.2c1.5-0.1,3.1-0.2,4.7-0.2L1468.8,671.2z"/>
<path class="st0" d="M1553.4,655.4l-20.9-28.7c-0.8-1.1-1.5-2.1-2.2-3c-0.6-0.8-1.4-1.6-2.1-2.2c-0.7-0.6-1.6-1.1-2.5-1.4
	c-1-0.3-2.1-0.5-3.2-0.5h-1v-3.1c2.9,0,5.6,0.1,8.2,0.2s5.3,0.2,8.2,0.2s5.3-0.1,7.9-0.2s5.1-0.2,7.6-0.2v3.1h-1.4
	c-1.3,0-2.6,0.2-3.8,0.6c-1.1,0.4-1.7,1-1.7,1.8c0,0.6,0.3,1.3,0.7,1.8l1.2,1.7l15.8,22.2l13-18.7c1-1.5,1.8-2.8,2.3-3.8
	c0.6-0.9,0.9-1.9,0.9-3c0-0.5-0.3-1-0.7-1.3c-0.5-0.3-1.1-0.6-1.7-0.7c-0.7-0.2-1.3-0.3-2-0.4c-0.7-0.1-1.2-0.1-1.5-0.1h-1.9v-3.1
	c2,0,4,0.1,6,0.2s3.9,0.2,6,0.2c1.7,0,3.3-0.1,5-0.2c1.7-0.1,3.3-0.2,4.9-0.2v3.1c-1.7,0-3.4,0.5-4.8,1.5c-1.3,0.9-2.4,2-3.3,3.3
	l-19.4,27.5v25c-0.1,1.8,0.1,3.5,0.6,5.2c0.2,1.1,0.8,2,1.5,2.8c0.8,0.6,1.7,1,2.7,1.2c1.2,0.1,2.5,0.2,3.7,0.2h2v3.1
	c-3.1,0-6.2-0.1-9.2-0.2c-3-0.1-5.6-0.2-7.9-0.2c-2.7,0-5.5,0.1-8.5,0.2s-6.1,0.2-9.2,0.2v-3.1h2c1.3,0,2.7-0.1,4-0.4
	c1-0.2,1.9-0.6,2.7-1.3c0.7-0.7,1.3-1.6,1.5-2.6c0.3-1.4,0.5-2.8,0.5-4.3L1553.4,655.4z"/>
<path class="st0" d="M1657.7,641.7c12.1,0,20.1,9.2,20.1,21.2c0,14.7-12.6,28.1-27.5,28.1c-12.6,0-20.6-8.4-20.6-21
	C1629.7,655,1642.6,641.7,1657.7,641.7z M1650.2,688.3c13.5,0,19.2-18.4,19.2-29.2c0-7.4-2.8-14.8-11.8-14.8
	c-14,0-19.6,17.7-19.6,29.2C1638.1,681.4,1641,688.3,1650.2,688.3z"/>
<path class="st0" d="M1719.6,643.3l-1.2,4.3H1707l-17.5,63.9l-6.4,1.9l-0.3-0.6l16.1-65.1h-9.4l1.2-4.3h9.2
	c3.3-11.6,6.1-20.3,15.7-28.7c2.8-2.5,7.2-5,11.2-5c2.1,0,4.3,0.8,4.3,3.3c0,1.5-1,5-2.9,5s-4.2-2.1-6.6-2.1
	c-6.4,0-8.3,7.1-9.7,13.1l-3.7,14.3L1719.6,643.3z"/>
<path class="st0" d="M1771.3,680.4c-0.1,1.1,0.2,2.3,0.7,3.3c0.5,0.8,1.1,1.4,1.9,1.8c0.8,0.4,1.7,0.6,2.6,0.7
	c1,0.1,1.9,0.2,2.9,0.2h2v3.1c-2.3,0-5-0.1-8-0.2s-6-0.2-8.9-0.2c-2.7,0-5.4,0.1-8.3,0.2c-2.9,0.1-5.4,0.2-7.5,0.2v-3.1h1.5
	c0.9,0,1.8-0.1,2.8-0.2c0.9-0.1,1.7-0.4,2.5-0.8c0.7-0.4,1.3-1,1.8-1.8c0.5-1,0.7-2.1,0.7-3.2v-54.8c0.1-1.1-0.2-2.2-0.7-3.2
	c-0.4-0.8-1-1.4-1.8-1.8c-0.8-0.4-1.6-0.7-2.5-0.8c-0.9-0.1-1.8-0.2-2.8-0.2h-1.5v-3.1c2.1,0,4.6,0.1,7.5,0.2s5.7,0.2,8.3,0.2
	c2.9,0,5.8-0.1,8.9-0.2c3.1-0.1,5.8-0.2,8-0.2v3.1h-2c-1,0-1.9,0.1-2.9,0.2c-0.9,0.1-1.8,0.3-2.6,0.7c-0.8,0.4-1.5,1-1.9,1.8
	c-0.5,1-0.8,2.1-0.7,3.3v22.9h38v-22.9c0.1-1.1-0.2-2.3-0.7-3.3c-0.5-0.8-1.1-1.4-1.9-1.8c-0.8-0.4-1.7-0.6-2.7-0.7
	c-0.9-0.1-1.9-0.2-2.8-0.2h-2v-3.1c2.3,0,5,0.1,8.1,0.2s6,0.2,8.9,0.2c2.7,0,5.4-0.1,8.3-0.2c2.9-0.1,5.4-0.2,7.5-0.2v3.1h-1.5
	c-0.9,0-1.9,0-2.8,0.2c-0.9,0.1-1.7,0.4-2.4,0.8c-0.8,0.4-1.4,1.1-1.8,1.8c-0.5,1-0.7,2.1-0.7,3.2v54.8c-0.1,1.1,0.2,2.2,0.7,3.2
	c0.4,0.7,1,1.4,1.8,1.8c0.8,0.4,1.6,0.7,2.4,0.8c0.9,0.1,1.9,0.2,2.8,0.2h1.5v3.1c-2.1,0-4.6-0.1-7.5-0.2s-5.7-0.2-8.3-0.2
	c-2.9,0-5.8,0.1-8.9,0.2s-5.8,0.2-8.1,0.2v-3.1h2c0.9,0,1.9-0.1,2.8-0.2c0.9-0.1,1.8-0.3,2.7-0.7c0.8-0.4,1.5-1,1.9-1.8
	c0.5-1,0.8-2.2,0.7-3.3v-26h-38V680.4z"/>
<path class="st0" d="M1835.3,686.3h1.5c0.9,0,1.9-0.1,2.8-0.2c0.9-0.1,1.7-0.4,2.5-0.8c0.7-0.4,1.4-1,1.8-1.8c0.5-1,0.7-2.1,0.7-3.2
	v-54.8c0-1.1-0.2-2.2-0.7-3.2c-0.4-0.8-1-1.4-1.8-1.8c-0.8-0.4-1.6-0.7-2.5-0.8c-0.9-0.1-1.9-0.2-2.8-0.2h-1.5v-3.1
	c2,0,4.5,0.1,7.3,0.2s5.6,0.2,8.2,0.2s5.4-0.1,8.4-0.2s5.6-0.2,8.1-0.2v3.1h-1.5c-0.9,0-1.9,0-2.8,0.2c-0.9,0.1-1.7,0.4-2.4,0.8
	c-0.8,0.4-1.4,1.1-1.8,1.8c-0.5,1-0.7,2.1-0.7,3.2v54.8c-0.1,1.1,0.2,2.2,0.7,3.2c0.4,0.7,1,1.4,1.8,1.8c0.8,0.4,1.6,0.7,2.4,0.8
	c0.9,0.1,1.9,0.2,2.8,0.2h1.5v3.1c-2.5,0-5.2-0.1-8.2-0.2s-5.7-0.2-8.4-0.2c-2.6,0-5.3,0.1-8.1,0.2c-2.8,0.1-5.2,0.2-7.3,0.2V686.3z
	"/>
<path class="st0" d="M1939.7,636.9c-1.6-6.4-4.5-10.9-8.7-13.5s-9.4-3.9-15.5-3.9c-4.2-0.1-8.4,0.7-12.2,2.4
	c-3.4,1.5-6.4,3.8-8.7,6.6c-2.4,2.9-4.2,6.3-5.2,9.9c-1.2,4-1.8,8.1-1.7,12.3c0,4.3,0.5,8.7,1.6,12.9c1,4.1,2.7,7.9,5,11.5
	c2.2,3.4,5.2,6.2,8.7,8.2c3.9,2.2,8.4,3.3,12.9,3.1c2.4,0.1,4.8-0.1,7.2-0.5c2.3-0.4,3.7-0.9,4.4-1.5v-17c0-0.9-0.2-1.8-0.7-2.6
	c-0.5-0.7-1.1-1.3-1.8-1.7c-0.8-0.4-1.7-0.7-2.6-0.8c-1-0.1-1.9-0.2-2.9-0.2h-1.4V659c2.7,0.1,5.3,0.2,7.8,0.3s5.2,0.1,7.8,0.1
	c2.4,0,4.7,0,7-0.1c2.3-0.1,4.6-0.2,7-0.3v3.1h-1.4c-3.8,0-5.7,1.8-5.7,5.3v15.9l2.4,1.4v1.9c-4.6,1.3-9.3,2.4-14,3.2
	c-5,0.9-10.1,1.3-15.2,1.3c-5.5,0-11.1-0.8-16.3-2.6c-4.8-1.6-9.2-4.2-13-7.6c-3.7-3.4-6.7-7.7-8.6-12.3c-2.2-5.3-3.2-11-3.1-16.7
	c-0.1-5.5,1.1-11,3.6-16c2.3-4.5,5.5-8.4,9.4-11.6c4-3.1,8.5-5.5,13.4-7c5-1.6,10.2-2.4,15.5-2.3c2.8,0,5.7,0.2,8.5,0.6
	c2.4,0.4,4.6,0.8,6.6,1.3s4,0.9,5.8,1.3c2,0.4,4,0.6,6,0.7v3.5c0,1.4,0.1,2.9,0.2,4.5s0.2,3.3,0.4,5c0.1,1.6,0.4,3.2,0.7,4.8
	L1939.7,636.9z"/>
<path class="st0" d="M1974.6,680.4c-0.1,1.1,0.2,2.3,0.7,3.3c0.5,0.8,1.1,1.4,1.9,1.8c0.8,0.4,1.7,0.6,2.6,0.7
	c1,0.1,1.9,0.2,2.9,0.2h2v3.1c-2.3,0-5-0.1-8-0.2s-6-0.2-8.9-0.2c-2.7,0-5.4,0.1-8.3,0.2c-2.9,0.1-5.4,0.2-7.5,0.2v-3.1h1.5
	c0.9,0,1.8-0.1,2.8-0.2c0.9-0.1,1.7-0.4,2.5-0.8c0.7-0.4,1.4-1,1.8-1.8c0.5-1,0.7-2.1,0.7-3.2v-54.8c0-1.1-0.2-2.2-0.7-3.2
	c-0.4-0.8-1-1.4-1.8-1.8c-0.8-0.4-1.6-0.7-2.5-0.8c-0.9-0.1-1.8-0.2-2.8-0.2h-1.5v-3.1c2.1,0,4.6,0.1,7.5,0.2s5.7,0.2,8.3,0.2
	c2.9,0,5.8-0.1,8.9-0.2c3.1-0.1,5.8-0.2,8-0.2v3.1h-2c-1,0-1.9,0.1-2.9,0.2c-0.9,0.1-1.8,0.3-2.6,0.7c-0.8,0.4-1.5,1-1.9,1.8
	c-0.5,1-0.8,2.1-0.7,3.3v22.9h38v-22.9c0.1-1.1-0.2-2.3-0.7-3.3c-0.5-0.8-1.1-1.4-1.9-1.8c-0.8-0.4-1.7-0.6-2.7-0.7
	c-0.9-0.1-1.9-0.2-2.8-0.2h-2v-3.1c2.3,0,5,0.1,8.1,0.2s6,0.2,8.9,0.2c2.7,0,5.4-0.1,8.3-0.2c2.9-0.1,5.4-0.2,7.5-0.2v3.1h-1.5
	c-0.9,0-1.9,0-2.8,0.2c-0.9,0.1-1.7,0.4-2.4,0.8c-0.7,0.4-1.4,1.1-1.8,1.8c-0.5,1-0.7,2.1-0.7,3.2v54.8c-0.1,1.1,0.2,2.2,0.7,3.2
	c0.4,0.7,1,1.4,1.8,1.8c0.8,0.4,1.6,0.7,2.4,0.8c0.9,0.1,1.9,0.2,2.8,0.2h1.5v3.1c-2.1,0-4.6-0.1-7.5-0.2s-5.7-0.2-8.3-0.2
	c-2.9,0-5.8,0.1-8.9,0.2s-5.7,0.2-8.1,0.2v-3.1h2c0.9,0,1.9-0.1,2.8-0.2c0.9-0.1,1.8-0.3,2.7-0.7c0.8-0.4,1.5-1,1.9-1.8
	c0.5-1,0.8-2.2,0.7-3.3v-26h-38L1974.6,680.4z"/>
<path class="st0" d="M2039.1,686.3h1.5c0.9,0,1.8-0.1,2.8-0.2c0.9-0.1,1.7-0.4,2.5-0.8c0.7-0.4,1.4-1,1.8-1.8c0.5-1,0.7-2.1,0.7-3.2
	v-54.8c0-1.1-0.2-2.2-0.7-3.2c-0.4-0.8-1-1.4-1.8-1.8c-0.8-0.4-1.6-0.7-2.5-0.8c-0.9-0.1-1.8-0.2-2.8-0.2h-1.5v-3.1
	c1.6,0,3.5,0,5.6,0s4.3,0.1,6.6,0.2s4.6,0.1,7,0.2s4.7,0,6.9,0s4.4,0,6.9,0s4.8-0.1,7.2-0.2s4.6-0.1,6.8-0.2s4.1,0,6,0
	c-0.1,1.1-0.1,2.4-0.1,3.8v4.3c0,1.4,0,2.8,0.1,4.2s0.1,2.7,0.2,3.8l-3.1,0.8c-0.1-1.6-0.4-3.2-0.7-4.8c-0.3-1.4-0.9-2.8-1.8-3.9
	c-1-1.2-2.3-2.1-3.8-2.6c-2.1-0.7-4.3-1-6.5-0.9h-14.5v27.4h12.4c1.3,0,2.6-0.2,3.8-0.6c1-0.4,1.8-1,2.4-1.8
	c0.6-0.9,1.1-1.9,1.4-2.9c0.3-1.3,0.6-2.5,0.7-3.8h3.1c-0.2,4.1-0.3,8.2-0.3,12.2s0.1,8,0.3,11.9l-3.1,0.6c-0.1-1.5-0.3-2.9-0.5-4.2
	c-0.2-1.2-0.5-2.3-1.1-3.3c-0.5-0.9-1.3-1.6-2.3-2.1c-1.3-0.6-2.8-0.8-4.2-0.7h-12.6v24.4c-0.1,1.4,0.3,2.8,1.1,3.9
	c0.7,0.9,1.7,1.6,2.8,2c1.3,0.4,2.7,0.7,4.1,0.7c1.5,0.1,3.1,0.1,4.8,0.1c3.1,0,5.9-0.1,8.1-0.3c2.1-0.1,4.1-0.7,6-1.6
	c1.7-0.9,3.2-2.2,4.2-3.8c1.3-2.2,2.3-4.6,2.9-7.1l2.9,0.7c-0.7,2.8-1.3,5.6-1.9,8.3s-1.1,5.5-1.6,8.3c-1.7,0-3.6,0-5.9,0
	s-4.6-0.1-7.2-0.2s-5.1-0.1-7.6-0.2s-5,0-7.4,0s-4.9,0-7.5,0s-5.2,0.1-7.7,0.2s-4.9,0.1-7.1,0.2s-4.1,0-5.6,0L2039.1,686.3z"/>
<path class="st0" d="M2112.7,627.6c0.1-1.5-0.2-3-0.7-4.5c-0.4-0.9-1-1.8-1.8-2.4c-0.7-0.5-1.5-0.8-2.4-0.9
	c-0.8-0.1-1.7-0.2-2.6-0.2h-1.9v-3.1c1.7,0,4,0.1,6.9,0.2s6.1,0.2,9.3,0.2s6-0.1,8.7-0.2s5.4-0.2,8.1-0.2c3.2,0,6.3,0.2,9.4,0.8
	c2.8,0.4,5.5,1.4,8,2.8c2.3,1.4,4.2,3.3,5.5,5.7c1.4,2.8,2.1,6,2,9.2c0.1,4.2-1.4,8.3-4.2,11.5c-1.3,1.6-2.9,2.9-4.6,4
	c-1.8,1.2-3.7,2.1-5.8,2.9l17.9,26.8c0.6,1,1.3,1.9,2.1,2.8c0.6,0.7,1.4,1.3,2.2,1.8c0.8,0.5,1.7,0.8,2.6,1.1
	c1.1,0.3,2.2,0.5,3.3,0.6v3.1c-1.8,0-3.4-0.1-5.1-0.2s-3.4-0.2-5.1-0.2s-3.2,0.1-4.9,0.2s-3.3,0.2-4.9,0.2
	c-4-5.3-7.8-10.8-11.3-16.4c-3.5-5.6-7-11.4-10.4-17.5h-6.9V678c-0.1,1.6,0.2,3.2,0.7,4.7c0.4,1,1,1.9,1.8,2.5
	c0.8,0.6,1.7,0.9,2.7,1c1,0.1,2.2,0.2,3.4,0.2h1.9v3.1c-3,0-6-0.1-9-0.2s-6-0.2-9-0.2c-2.5,0-5,0.1-7.5,0.2s-5,0.2-7.7,0.2v-3.1h1.9
	c1.8,0,3.6-0.4,5.2-1.4c1.5-0.9,2.4-2.5,2.2-4.3L2112.7,627.6z M2126.1,651.8h5.1c2.3,0,4.6-0.3,6.9-0.8c1.9-0.5,3.6-1.4,5.1-2.7
	c1.4-1.4,2.5-3.1,3.1-5c0.8-2.5,1.1-5.1,1.1-7.7c0-4.7-1.4-8.4-4.1-11.1c-2.8-2.8-6.5-4.1-11.2-4.2c-1.2,0-2.4,0-3.6,0.2
	c-0.8,0.1-1.6,0.2-2.4,0.3L2126.1,651.8z"/>
<path class="st0" d="M2207.5,686.3h1.5c0.9,0,1.8-0.1,2.8-0.2c0.9-0.1,1.7-0.4,2.5-0.8c0.7-0.4,1.3-1,1.8-1.8c0.5-1,0.7-2.1,0.7-3.2
	v-54.8c0.1-1.1-0.2-2.2-0.7-3.2c-0.4-0.8-1-1.4-1.8-1.8c-0.8-0.4-1.6-0.7-2.5-0.8c-0.9-0.1-1.8-0.2-2.8-0.2h-1.5v-3.1
	c1.6,0,3.4,0,5.6,0s4.3,0.1,6.6,0.2s4.6,0.1,7,0.2s4.7,0,6.9,0s4.4,0,6.9,0s4.8-0.1,7.2-0.2s4.6-0.1,6.8-0.2s4.1,0,6,0
	c-0.1,1.1-0.1,2.4-0.1,3.8v4.3c0,1.4,0,2.8,0.1,4.2s0.1,2.7,0.2,3.8l-3.1,0.8c-0.1-1.6-0.4-3.2-0.7-4.8c-0.3-1.4-0.9-2.8-1.8-3.9
	c-1-1.2-2.3-2.1-3.8-2.6c-2.1-0.7-4.3-1-6.5-0.9h-14.5v27.4h12.4c1.3,0,2.6-0.2,3.8-0.6c1-0.4,1.8-1,2.4-1.8
	c0.6-0.9,1.1-1.9,1.4-2.9c0.3-1.3,0.6-2.5,0.7-3.8h3.1c-0.2,4.1-0.3,8.2-0.3,12.2s0.1,8,0.3,11.9l-3.1,0.6c-0.1-1.5-0.3-2.9-0.5-4.2
	c-0.2-1.2-0.5-2.3-1.1-3.3c-0.5-0.9-1.3-1.6-2.3-2.1c-1.3-0.6-2.8-0.8-4.2-0.7h-12.6v24.4c-0.1,1.4,0.3,2.8,1,3.9
	c0.7,0.9,1.7,1.6,2.8,2c1.3,0.4,2.7,0.7,4.1,0.7c1.5,0.1,3.1,0.1,4.8,0.1c3.1,0,5.9-0.1,8.1-0.3c2.1-0.1,4.1-0.7,6-1.6
	c1.7-0.9,3.2-2.2,4.2-3.8c1.4-2.2,2.3-4.6,2.9-7.1l2.9,0.7c-0.7,2.8-1.3,5.6-1.9,8.3s-1.1,5.5-1.6,8.3c-1.7,0-3.6,0-5.9,0
	s-4.7-0.1-7.2-0.2s-5-0.1-7.6-0.2s-5.1,0-7.4,0s-4.9,0-7.5,0s-5.2,0.1-7.7,0.2s-4.9,0.1-7.1,0.2s-4.1,0-5.6,0L2207.5,686.3z"/>
<path class="st0" d="M2271.4,686.3h1.5c0.9,0,1.9-0.1,2.8-0.2c0.9-0.1,1.7-0.4,2.5-0.8c0.7-0.4,1.4-1,1.8-1.8c0.5-1,0.7-2.1,0.7-3.2
	v-54.8c0-1.1-0.2-2.2-0.7-3.2c-0.4-0.8-1-1.4-1.8-1.8c-0.8-0.4-1.6-0.7-2.5-0.8c-0.9-0.1-1.8-0.2-2.8-0.2h-1.5v-3.1
	c1.6,0,4,0.1,7.1,0.2s6.3,0.2,9.7,0.2s6.4-0.1,9.2-0.2s5.4-0.2,7.6-0.2c5.9-0.1,11.7,0.8,17.3,2.6c4.8,1.6,9.2,4.1,13.1,7.4
	c3.6,3.2,6.4,7.1,8.3,11.5c2,4.7,2.9,9.8,2.9,14.8c0,5.1-1,10.1-3.1,14.7c-2,4.5-4.8,8.5-8.4,11.9c-3.6,3.4-7.8,6-12.3,7.8
	c-4.8,1.9-9.9,2.6-15,2.2c-2.3-0.1-5.2-0.2-8.6-0.3c-3.4-0.1-6.9-0.1-10.5-0.1c-1.8,0-3.6,0-5.3,0s-3.4,0.1-4.9,0.2
	s-2.9,0.1-4.1,0.2s-2.2,0-2.9,0L2271.4,686.3z M2294,677.5c-0.1,1.5,0.2,3,0.6,4.4c0.4,1,1.1,1.9,2,2.5c1,0.6,2.2,1,3.4,1.1
	c1.6,0.2,3.2,0.3,4.9,0.3c4.1,0.1,8.1-0.8,11.7-2.6c3.3-1.6,6.1-4,8.4-6.8c2.3-2.9,4-6.3,5.1-9.9c1.2-3.8,1.7-7.7,1.7-11.7
	c0-6.9-0.8-12.6-2.5-17c-1.3-4-3.6-7.6-6.6-10.6c-2.8-2.6-6.1-4.4-9.8-5.4c-3.9-1-7.9-1.5-11.9-1.5c-1.2,0-2.4,0-3.6,0.2
	s-2.4,0.2-3.6,0.4L2294,677.5z"/>
<path class="st0" d="M2362,627.3c0.1-1.5-0.2-3-0.7-4.4c-0.3-0.9-1-1.7-1.8-2.2c-0.8-0.5-1.7-0.8-2.6-0.8c-1-0.1-2-0.2-3-0.2h-1.2
	v-3.1c2.2,0,4.7,0.1,7.5,0.2s5.8,0.2,9.1,0.2c3.1,0,6-0.1,8.6-0.2s5-0.2,7.1-0.2v3.1h-1.3c-1,0-2.1,0.1-3.1,0.2
	c-0.9,0.1-1.9,0.4-2.7,0.8c-0.8,0.5-1.5,1.3-1.9,2.2c-0.6,1.4-0.8,2.9-0.7,4.4v36.1c0,3.1,0.3,6.1,1,9.2c0.6,2.6,1.7,5,3.4,7.1
	c1.6,2,3.7,3.6,6.1,4.6c3,1.2,6.2,1.7,9.4,1.6c6.9,0,11.9-2.1,15.1-6.2c3.2-4.1,4.8-9.7,4.8-16.7v-35.7c0.1-1.5-0.2-3-0.7-4.4
	c-0.3-0.9-1-1.7-1.8-2.2c-0.7-0.5-1.5-0.7-2.4-0.8c-0.9-0.1-1.8-0.2-2.7-0.2h-2.1v-3.1c2.1,0,4.2,0.1,6.3,0.2s4.2,0.2,6.3,0.2
	s4-0.1,6.1-0.2s4-0.2,6.1-0.2v3.1h-2.2c-0.8,0-1.5,0.1-2.2,0.2c-0.8,0.1-1.5,0.4-2.2,0.8c-0.7,0.6-1.3,1.4-1.6,2.2
	c-0.5,1.4-0.7,2.9-0.6,4.4v33.3c0.1,5-0.6,10-2.2,14.7c-1.2,3.6-3.3,6.8-6,9.4c-2.5,2.3-5.6,4-8.9,4.9c-3.6,1-7.3,1.4-11,1.4
	c-4.5,0.1-9-0.4-13.3-1.4c-3.6-0.8-6.9-2.3-9.8-4.5c-2.7-2.1-4.9-4.9-6.1-8.1c-1.4-3.8-2.1-7.9-2-12V627.3z"/>
<path class="st0" d="M2500.6,638c-0.7-2.4-1.7-4.8-2.7-7.2c-1-2.2-2.5-4.2-4.2-5.9c-1.9-1.8-4.2-3.1-6.6-4c-3.2-1.1-6.5-1.5-9.8-1.5
	c-3.9-0.1-7.8,0.7-11.3,2.4c-3.2,1.6-6,3.8-8.2,6.6c-2.3,3-4,6.4-5,10c-1.1,4.1-1.7,8.4-1.7,12.7c0,4.3,0.6,8.7,1.7,12.9
	c1,4,2.8,7.8,5.2,11.2c2.3,3.3,5.4,6,8.9,8c3.9,2.1,8.4,3.1,12.8,3c5.7,0,10.3-1.6,13.9-4.8c3.7-3.3,6.3-7.7,7.5-12.5l2.9,0.4
	c-0.7,2.8-1.2,5.6-1.6,8.5c-0.4,2.8-0.7,5.6-1,8.5c-3.4,1.4-7,2.6-10.7,3.3c-4.4,0.9-8.8,1.4-13.3,1.4c-5.5,0.1-11-0.8-16.3-2.4
	c-4.8-1.5-9.2-4-13-7.3c-3.8-3.4-6.7-7.6-8.6-12.2c-2.2-5.5-3.2-11.3-3.1-17.2c-0.1-5.4,1-10.8,3.3-15.7c2.1-4.5,5.1-8.4,8.8-11.6
	c3.8-3.2,8.2-5.6,12.9-7.2c5-1.7,10.2-2.5,15.4-2.5c2.6,0,5.3,0.2,7.8,0.6c2.2,0.4,4.2,0.9,6.1,1.5c1.9,0.6,3.8,1.1,5.6,1.7
	c2.1,0.7,4.3,1.1,6.5,1.4c-0.1,2.9,0,5.8,0.1,8.7s0.4,5.8,0.7,8.7L2500.6,638z"/>
<path class="st0" d="M2526.1,674.5c-0.6,1.8-1.1,3.4-1.6,4.7c-0.4,1.1-0.7,2.3-0.7,3.5c0,0.7,0.2,1.4,0.7,1.9
	c0.5,0.5,1.2,0.9,1.9,1.1c0.8,0.3,1.7,0.5,2.6,0.5c0.9,0.1,1.8,0.1,2.7,0.1h1.1v3.1c-2.1-0.1-4.2-0.2-6.3-0.3s-4.2-0.1-6.3-0.1
	c-1.9,0-3.8,0-5.6,0.1s-3.8,0.2-5.6,0.3v-3.1h0.6c2,0,3.9-0.6,5.5-1.7c1.7-1.3,3-3,3.6-5.1l16.7-48c0.7-1.9,1.4-4.1,2.2-6.5
	c0.7-2.1,1.3-4.3,1.7-6.5c1.8-0.6,3.6-1.3,5.3-2.2c1.4-0.7,2.9-1.5,4.2-2.3c0.3-0.1,0.6-0.2,0.8-0.2c0.3,0,0.6,0.1,0.7,0.3
	c0.1,0.4,0.3,0.9,0.5,1.3s0.3,0.9,0.5,1.3l19.2,54.7c0.6,1.8,1.2,3.6,1.9,5.5s1.3,3.6,2,5.2c1.2,2.8,3.5,4.2,6.9,4.2h0.6v3.1
	c-2.4-0.1-4.7-0.2-7.1-0.3s-4.8-0.1-7.3-0.1c-2.6,0-5.2,0-7.8,0.1c-2.6,0.1-5.2,0.2-7.9,0.3v-3.1h1.1c0.6,0,1.3,0,2-0.1
	c0.7-0.1,1.4-0.2,2.1-0.4c0.6-0.2,1.2-0.5,1.7-0.9c0.4-0.4,0.7-1,0.7-1.6c-0.1-1-0.3-2-0.6-3c-0.4-1.3-0.9-2.8-1.5-4.5l-4.1-12.1
	h-23.7L2526.1,674.5z M2541.4,628.2h-0.2l-9.7,29.6h19.5L2541.4,628.2z"/>
<path class="st0" d="M2589.6,621.7c-1.5,0-3.1,0.1-4.6,0.4c-1,0.2-1.9,0.7-2.6,1.5c-0.7,0.8-1.2,1.9-1.4,2.9
	c-0.3,1.3-0.7,2.8-1.1,4.7h-3.1c0.2-1.5,0.4-2.9,0.7-4.4s0.4-3,0.6-4.5c0.4-2.9,0.6-5.9,0.6-8.9h2.5c0.1,0.7,0.5,1.3,0.9,1.8
	c0.4,0.4,0.9,0.7,1.5,0.9c0.6,0.2,1.2,0.3,1.8,0.3c0.7,0,1.3,0.1,2,0.1h53.9c1.3,0,2.5-0.1,3.8-0.4c1.1-0.3,1.7-1.2,1.9-2.8l2.5,0.4
	c-0.2,1.4-0.4,2.8-0.6,4.2s-0.4,2.8-0.5,4.2c-0.1,1.4-0.2,2.9-0.2,4.3v4.2l-3.1,1.2c-0.1-1-0.2-2-0.3-3.2c-0.1-1.1-0.5-2.2-1-3.2
	c-1.2-2.4-3.8-3.8-6.4-3.6h-17.1v55.6c-0.1,1.6,0.2,3.3,0.6,4.8c0.3,1.1,1,2,1.8,2.7c0.8,0.6,1.8,1,2.8,1.2c1.1,0.2,2.3,0.3,3.4,0.3
	h2v3.1c-1,0-2.2,0-3.6,0s-2.8-0.1-4.4-0.2s-3.1-0.1-4.6-0.2s-3.1,0-4.4,0c-1.6,0-3.2,0-4.9,0s-3.2,0.1-4.8,0.2s-3,0.1-4.4,0.2
	s-2.6,0-3.6,0v-3.1h2c1.3,0,2.6-0.1,3.8-0.2c1-0.1,1.9-0.5,2.7-1.1c0.8-0.7,1.4-1.6,1.6-2.6c0.4-1.6,0.6-3.2,0.5-4.9v-55.8H2589.6z"
	/>
<path class="st0" d="M2652.3,686.3h1.5c0.9,0,1.9-0.1,2.8-0.2c0.9-0.1,1.7-0.4,2.5-0.8c0.7-0.4,1.3-1,1.8-1.8c0.5-1,0.7-2.1,0.7-3.2
	v-54.8c0-1.1-0.2-2.2-0.7-3.2c-0.4-0.8-1-1.4-1.8-1.8c-0.8-0.4-1.6-0.7-2.5-0.8c-0.9-0.1-1.9-0.2-2.8-0.2h-1.5v-3.1
	c2,0,4.5,0.1,7.3,0.2s5.6,0.2,8.2,0.2s5.4-0.1,8.4-0.2s5.6-0.2,8-0.2v3.1h-1.5c-0.9,0-1.9,0-2.8,0.2c-0.9,0.1-1.7,0.4-2.4,0.8
	c-0.7,0.4-1.4,1.1-1.8,1.8c-0.5,1-0.7,2.1-0.7,3.2v54.8c-0.1,1.1,0.2,2.2,0.7,3.2c0.4,0.7,1,1.4,1.8,1.8c0.8,0.4,1.6,0.7,2.4,0.8
	c0.9,0.1,1.9,0.2,2.8,0.2h1.5v3.1c-2.5,0-5.2-0.1-8.1-0.2c-2.9-0.1-5.7-0.2-8.4-0.2c-2.6,0-5.3,0.1-8.1,0.2
	c-2.8,0.1-5.2,0.2-7.3,0.2L2652.3,686.3z"/>
<path class="st0" d="M2690,653.5c0-5.2,1-10.4,3-15.2c3.8-9.2,11.1-16.6,20.4-20.4c4.8-2,10-3,15.2-3c5.3,0,10.6,0.8,15.7,2.5
	c4.7,1.6,9,4,12.7,7.2c3.6,3.1,6.5,7,8.5,11.3c2.1,4.7,3.2,9.9,3.1,15.1c0.1,5.6-0.9,11.2-3,16.4c-3.8,9.5-11.3,17.1-20.9,20.8
	c-5,1.9-10.3,2.9-15.6,2.9c-5.3,0.1-10.5-0.9-15.5-2.7c-4.6-1.7-8.8-4.3-12.4-7.6c-3.5-3.3-6.4-7.3-8.3-11.8
	C2691,664,2689.9,658.8,2690,653.5z M2704.6,649.9c0,4.6,0.5,9.1,1.6,13.6c1,4.1,2.6,8.1,4.8,11.7c2,3.3,4.7,6.1,7.9,8.2
	c3.3,2.1,7.2,3.2,11.1,3.1c5.1,0,9.2-1,12.3-3c3-1.9,5.5-4.6,7.2-7.8c1.8-3.3,2.9-6.9,3.4-10.7c0.6-3.9,0.9-7.8,0.9-11.7
	c0-4-0.5-7.9-1.6-11.7c-1-3.9-2.6-7.5-4.8-10.9c-2.1-3.2-4.8-6-8-8c-3.4-2.1-7.3-3.2-11.3-3.1c-7.6-0.4-14.8,3.4-18.7,9.9
	c-1.8,3-3.2,6.3-3.9,9.8C2705,642.8,2704.6,646.3,2704.6,649.9L2704.6,649.9z"/>
<path class="st0" d="M2842.2,668.9l0.2-0.2v-39.2c0.1-1.8-0.3-3.6-1-5.2c-0.6-1.2-1.4-2.2-2.4-3c-0.9-0.7-1.9-1.1-3-1.4
	c-0.9-0.2-1.8-0.3-2.7-0.3h-2.3v-3.1c2.4,0,4.9,0.1,7.3,0.2s4.9,0.2,7.3,0.2c2.2,0,4.3-0.1,6.4-0.2c2.1-0.1,4.3-0.2,6.4-0.2v3.1
	h-1.5c-1.1,0-2.2,0.1-3.4,0.3c-1.2,0.2-2.2,0.8-3,1.7c-1,1.2-1.7,2.5-2.1,4c-0.6,2.4-0.9,4.9-0.8,7.3v47.6c0,1.8,0,3.6,0.1,5.4
	c0.1,1.7,0.2,3.4,0.5,5.1h-4l-53.9-60v43.1c0,1.9,0.1,3.8,0.4,5.8c0.2,1.4,0.7,2.6,1.5,3.8c0.8,1,1.8,1.7,3,2.1
	c1.6,0.5,3.3,0.7,4.9,0.6h1.8v3.1c-2.2,0-4.5-0.1-6.8-0.2s-4.5-0.2-6.7-0.2s-4.7,0.1-7.1,0.2s-4.7,0.2-7.1,0.2v-3.1h1.5
	c3.6,0,6.1-1.2,7.4-3.5s2-5.6,2-9.8V629c0-1.4-0.3-2.7-0.8-3.9c-0.5-1.1-1.3-2.1-2.1-3c-0.9-0.8-1.9-1.5-3-1.9
	c-1.1-0.4-2.3-0.6-3.5-0.6h-1.4v-3.1c2,0,4,0.1,6,0.2s4,0.2,6,0.2c1.6,0,3.2-0.1,4.6-0.2c1.5-0.1,3-0.2,4.7-0.2L2842.2,668.9z"/>
<rect x="1052.8" y="882.4" class="st0" width="1815.9" height="6"/>
<path class="st1" d="M919.1,592.4c0,0,1.7-2.2,6.4-3c3.8-10.4,6.3-21.2,7.4-32.1c2.1-11.9,23.1-11.3,30.9-25.7
	c-3.1,16.6-29.7,13.5-30.5,32.6c6.8-10.2,19.5-10.7,28.2-18.4s4.5-22.4,2.3-32c-1.1,4.7-3.6,8.3-11.8,9s-18,8.4-16.7,18.3
	c8.7-5.7,23.6-7.8,28-17.4c-1.1,15.7-34.3,16.4-34.6,28.8c-0.3,5.1-1.1,10.1-2.1,15.1c-6.8-16.5-23.4-27.2-35.2-47.3
	c6.8,9.4,26.5,27.4,33.4,36.8c-3-31.5-27.4-24-39.6-54.5c-2.7,42.3,22.8,50.8,31.2,66.8c-1.5-12.2-20.1-25.4-28.1-49.5
	c9.7,23.8,31.5,36.3,35.8,58C922.8,582.9,921.1,587.7,919.1,592.4z"/>
<path class="st1" d="M540.6,787.3c-23.9-16.4-63.4,8-89.4-0.8c23.8,4.3,45-8.6,63.9-7.4c-8.9-5.1-18.9-8.1-29.2-8.8
	c-21.9-1.5-37.2,17.3-57.3,7.6c8.4,7.5,28,22.5,43.9,23.7c22.2,1.5,38.7-8.2,52.3-7.3c-15.4-6.3-48.3,8.1-71.4-4.3
	c23.2,8,64.5-8.7,85.4,5.9c6.6,4.5,28,18.6,28,18.6c3.7-1.2,7.6-2.1,11.5-2.5l-12-7.5c-8.4-23.1,2.9-49.4-10.2-68.8
	c14,18.3,8.8,47.8,11.4,53.6c5.5-12.8,9.1-48.7-30.9-70.8c10.4,14-0.8,25.2-1.8,40.6s17.6,32,17.6,32c-3.7-19.3,9.9-44.8-6.7-63.6
	c20.5,16.9,6.2,45.8,9.8,70C549.3,793.1,540.6,787.3,540.6,787.3z"/>
<path class="st1" d="M482,745.5c-19.3-15.2-55.8,12.8-77.3-0.2c21.7,6.3,44.4-9.4,54.4-6.7c-27.7-19.7-44.6,1.1-58.5,0.1
	c-9.9-0.7-20.6-8.3-20.6-8.3c9.1,10.2,28.7,30.6,43.5,31.6c17.8,1.2,41.5-10.4,52-7.5c-11.2-9.7-47.5,9-70.3-5
	c27.3,10.8,56.8-11,74.1,2.8c0,0,23.1,17.5,30.1,22.6c5.3-0.8,10.7-0.2,15.7,1.8l-12.4-8.6c-4.9-17,2.3-51.3-14.4-75
	c19.9,19.6,13.9,47.8,16.4,54.4c3.8-15.5,7.9-46.5-36.5-71.5c12.4,18,2.2,27.3,3.3,38.5c0.9,12.8,15.9,32.3,17.8,38.8
	c0.4-17.8,4.1-46.6-10.5-67.3c24,24.7,11.1,57.6,15.5,76C497.9,757.4,486.7,749.1,482,745.5z"/>
<path class="st1" d="M431.2,703.1c-15.6-14.9-54.5,8.6-74.8-8c22.9,10.1,42.2-1.8,54.5,0.5c0,0-10.8-8.2-27.9-9.4
	s-22.5,11.9-41.7-4.1c0,0,18.9,31.4,41.5,33c9.2,0.6,28.2-5,44.4-3.9c-20.8-11.7-45.1,5.8-65.1-8.8c19,10.3,52.6-6,64.5,5.3
	c8,7.4,19.9,18.5,30.9,27.2c8.1-1.3,12.5,1.3,12.5,1.3l-10.4-8.4c-9.3-17.7,1.7-53.2-10.5-74.5c13.2,20.9,7.3,42.6,8.8,56.4
	c1.9-10.6,6.5-20,5.5-32.3c-1-12.9-10.6-26.3-28.1-40.6c0,0,6.7,8.2,0.7,28.1c-4.5,15.5-1.6,30,11.5,46.9
	c-2.4-25.4,5.5-34.1,0.8-54.8c8.3,23.2-0.1,44.2,0.8,62C444.9,715.3,434.7,706.3,431.2,703.1z"/>
<path class="st1" d="M376.4,644c0,0-2.7-1.8-8.4-2c-7.7-10.8-14.5-22.1-20.3-34c-6.5-12.3-33.1-5.4-44.7-20.4c9.8,18.2,34,9.6,42,23
	c-8-5.1-23.4,1.4-33.3-5.6s-13.2-20.8-14.6-36c0,0,3.8,8.4,10.2,8.8s21.8-7,30.7,14.6c-10.8-5.9-28-0.8-36.1-10.6
	c8.1,16.7,42.7,6.5,49.1,21.5c4.7,9.1,10.1,18.6,10.1,18.6c1.2-28.8,18.1-37.1,19.8-60.9c-4.2,20.2-20.5,31.8-22.5,52.3
	c-15.4-41.7,18.5-41,23-70c0,0,11.8,26.9,5.4,44.5c-6.6,18.3-15,24.1-16.8,34.7c2-29,16.2-30.2,13.8-57.5
	c-3.1,26.4-19.5,35.8-16,67.1L376.4,644z"/>
<path class="st1" d="M346.3,592.4c0,0-1.7-2.2-6.4-3c-3.8-10.4-6.3-21.2-7.4-32.1c-2-11.9-23.1-11.3-30.9-25.7
	c3.1,16.6,29.7,13.5,30.5,32.6c-6.8-10.2-19.5-10.7-28.2-18.4s-4.5-22.4-2.3-32c1.1,4.7,3.6,8.3,11.8,9s18,8.4,16.8,18.3
	c-8.7-5.7-23.6-7.8-28-17.4c1.1,15.7,34.4,16.4,34.6,28.8c0.3,5.1,1.1,10.1,2.1,15.1c6.8-16.5,23.4-27.2,35.2-47.3
	c-6.8,9.4-26.5,27.4-33.4,36.8c3-31.5,27.4-24,39.6-54.5c2.7,42.3-22.8,50.8-31.2,66.8c1.5-12.2,20-25.4,28.1-49.5
	c-9.7,23.8-31.5,36.3-35.8,58C342.5,582.9,344.2,587.7,346.3,592.4z"/>
<path class="st1" d="M408.4,681.1c-7.2-16.3,9.2-43.9-0.9-71c11.5,29.2,2.2,40.8,1.8,58.6c3.5-12.3,10.6-19.5,9.8-35.5
	s-18.6-41.2-22.3-48.3c4.6,46.3-22.4,47.7-0.5,79.8c-1.2-13.6,14.7-26.4,5.4-62c12.5,32.7-3.2,45.2-1.6,69.7
	c-3.3-3.5-7.9-8.8-12.1-13.7c-16.5-21.2-49.5,2.5-65.6-15.9c16.7,9.7,31.3,0.7,45.9,3.2c-25.1-19.4-43.5-0.8-55.6-15.5
	c5.8,18.6,16.1,31.9,35,33.2c10.7,0.7,23.8-2.8,32.1-1.1c-15.6-10-44.3,1.4-54.5-13.9c12.9,12.2,46.3-1.6,59.7,15.4
	c7.9,9.8,17.7,19.8,25.1,27.6c3.3-0.2,6.6,0.2,9.9,1L408.4,681.1z"/>
<path class="st1" d="M334.9,516.1c2.3-10.7-15.6-11.3-24.4-24.7c1.9,14.3,25.3,14.9,22.1,27.5c-4-8.4-16.3-10.6-21.9-16
	c-6.5-6.4-2-18.2,1.4-27.7c0,0-0.6,11.8,6.5,12.9s17.5,3.2,18.6,16.6c-8.2-9.6-21.8-5.3-26.1-18.2c0,0-0.4,7.9,12.1,13
	s17,9.6,16,15.5c-0.2,1.4-0.7,4-0.7,4c5.8-10.1,29.2-20.2,38.4-33.4c-10.5,10.5-21.8,13.9-34.3,22.9c8.1-15.3,16.3-20.1,28.4-23.2
	c9.3-2.4,14.8-14.7,14.8-14.7c-5.6,39.9-26.8,39.1-39.3,51.2c6.6-9.3,25.1-19.6,30.2-31.1c-7.1,8.9-26.3,20.1-36,32.6
	c-1.4,1.8-3.5,5.3-3.8,8c-0.4,4.7-0.8,11.6-0.8,11.6s-0.7-2.2-4.2-4.4C332.6,530.9,333.5,523.4,334.9,516.1z"/>
<path class="st1" d="M347.7,481.5c14.2-12,31.5-11.5,35.1-20.2c-8.5,6.9-20.9,6.7-30.3,14.5c12.1-18.6,28.6-12.6,38.8-24.8
	c0,0-2.4,15.9-13.4,24.2c-7.7,5.9-16.5,5-23.8,11.1c3.4-8.5,22.4-10,28.4-21c-7.1,8-23.6,11.2-33.4,20.4c-1.5,1.5-3.5,2.9-4.1,4.8
	c-1,3.7-3.1,12.1-3.1,12.1s-0.1-2-3.1-4.2c1.2-5,3.2-11.5,4.2-15.1c3.1-9.6-16-13.5-20.4-23.1c3.9,12.7,21.8,15.5,18.3,24.5
	c-2.1-6.4-12.7-7.1-18.1-14c-4.6-6-3.3-15.1,0.3-23.6c-0.2,3.6,2.6,8.2,8.5,9.6c7.3,1.9,13.3,5.9,13.6,14.7
	c-3.4-6.3-15.9-6.1-22.4-15.3C326,467.1,350.7,471.9,347.7,481.5z"/>
<path class="st1" d="M389,378.3c7.7-5.5,20.5-9.9,29.1-14.7c-3.4,1.2-14.7,4-18.8,6.9c8.6-12,21.8-9.1,34.4-18.2
	c-8.1,22.1-28.2,20.3-32.4,24.5c4.9-4.6,18.8-8.8,23.4-14.4c-13.3,8.8-24.7,10.2-35.1,19.4c-1,2-3.3,6.4-3.3,6.4
	c-0.7-0.6-1.6-1-2.6-1l2.1-4.1c3.4-6.5-4.5-10.2-10.1-20.5c-0.1,7.5,9.4,12.8,8.3,17.4c-4.3-8.8-16.8-10.4-8.3-27.3
	c0.1,6.1,13.9,9.5,13.1,20.8c-1.8-5.6-12.8-10.8-13.5-16C378.2,367.2,389.7,371.9,389,378.3z"/>
<path class="st1" d="M401.2,356.9c2.9-5.2-6-11.1-9-16.4c1.5,4,7.8,10.6,7.4,14.2c-3.8-5.6-17.1-14.4-7.1-26.1
	c0.9,9.6,8.9,7.6,11.2,18.4c-3.4-4.5-8.5-4.8-12.7-12.9c2.8,8.5,11.1,11.2,13.7,18c7.1-5.9,23.1-10.4,29.1-14.8
	c-5.9,2.5-14.2,5.4-19.4,8.2c12.4-12.2,20.8-9.8,34.1-17.9c-10.2,21.4-27.7,19.5-30.5,22.5c3.4-3.9,16-8.5,19.1-12.2
	c-11.9,7.8-29.9,13.1-32.6,18.7c-0.9,1.5-3.6,6.2-3.6,6.2c-0.6-0.7-1.4-1.1-2.3-1.1L401.2,356.9z"/>
<path class="st1" d="M377,401.8c-3.4-9.6-14.7-12.2-16.2-24.6c3,9.3,11.3,10.2,13.6,17.5c0.9-13.6-12.5-14.6-12.7-24
	c-11.4,18,3.7,25.2,9.2,34.7c1.7-5.1-9.1-13.3-11-21.4c3.7,8.7,15.7,17.5,12.8,23.7c-0.9,2.1-2.9,6.3-2.9,6.3c1,0.8,1.7,1.8,2.2,3
	c1.3-2.9,4-9,4-9c9.1-11.4,28.8-14,39.8-24c-6.2,8.6-25.9,13.5-33,20.5c9.5-7.2,31.3-3.7,39.8-29.5c-6.8,9-31.4,8.5-39.4,21.7
	c10-6.5,21.4-8.2,32.1-14.3C406.6,389,388.6,393.6,377,401.8z"/>
<path class="st1" d="M364.6,434.2c1.1-2.6,3.1-3.6,5-4.5c7.9-4,23.9-10.8,31-16.8c-9,9.9-28.2,16.4-31.2,20.3
	c6.2-3,31.8-4.5,42.4-33.1c-13.8,11.5-28.4,8.3-37.8,21.2c5.4-3.4,16-4,25.9-11.5c-9.7,9.7-26,12-34,17
	c-3.7-7.8-14.9-14.1-17.9-22.1c6,8.2,12.4,9.5,17.2,16.6c-2.2-16.1-16.2-15.2-17.2-25.5c-2.3,4.1-6.2,13.6-1.5,20.4
	s10.3,8.9,13.4,15.5c0.9-7.2-12.3-16-13.2-25.8c2.5,8,10.7,13.6,14.3,20.7c1.1,1.8,1.3,3.9,0.7,5.9c-1.5,3.5-4,9.8-4,9.8
	c1.2,0.6,2.1,1.6,2.6,2.9C361.6,441.8,364.6,434.2,364.6,434.2z"/>
<path class="st1" d="M357.2,454.2c3-7.9-19-14.5-21.3-27.4c4.5,11,14,9.9,17.8,17.5c0.3-6.6-3.6-12.8-9.7-15.4
	c-6.7-3-6.8-7.7-6.4-12.6c-2.3,3.2-8.2,16.8-4.7,23.4s12.2,7.9,18,16.5c0.2-9.5-15.9-11.8-15.8-26.1c4.8,11.6,21,17.4,17.5,26.2
	c-1.8,4.9-3.9,10.8-3.9,10.8c1,1.2,1.9,2.5,2.6,3.9c1.1-3.4,2.8-8.2,2.8-8.2c3.1-8.6,28.1-15.8,37.1-25.3
	c-8,11.9-23.7,14.7-26.7,19.3c10.5-5.3,29.2-4.6,35.1-30.4c-14.2,12.4-27.2,7.8-36.8,21.5c8.3-5.9,20.5-6.8,28.1-11.6
	C381.3,444.3,363.5,447.4,357.2,454.2"/>
<path class="st1" d="M704.1,895l4.7-8.7l0,0c-28.5-15.2-56.9-30.8-84.8-47c-9.9-5.7-19.7-11.6-29.5-17.6c-9-5.5-21.8-2.7-32,1.9
	s-39.7,16.7-62.5,2.8c27.4,11.3,61.2-8,68.1-7.5c-41.5-24.6-49.5,15.8-87.8-4.7c31.8,39.4,66.4,36.7,95.1,18.8
	c-11.1-2.1-37.8,18.3-68.6-0.5c35.9,16.5,68.1-13.1,83.3-3.5c9.7,6.1,19.5,12,29.3,17.9C647.4,863.6,675.7,879.5,704.1,895
	L704.1,895z"/>
<path class="st1" d="M413.2,336.6c-1.2,0.4-2.4,0.9-3.5,1.5l2.1-3.5c3.4-5.6-7.8-10.1-9-14.4c1,5.6,7.7,6.9,6.7,12.6
	c-2.8-9-14.8-9.1-6.1-20.8c1.8,7,10.4,7.7,11,15.9c-3-6.5-8.4-6.1-11-13.3c-0.8,6.3,12.6,13.2,10.6,16.5c3.2-5.2,16.8-8.4,24.6-12.7
	c-3.5,0.8-12.3,4.4-14.2,4.5c6.3-5,22.4-8.4,32.5-15.7c-4.8,6.2-11.4,13.7-24.9,17.2c0,0,7.6-3.9,11.1-6.7
	c-9,5.2-24.1,9.4-27.3,14.8C413.7,335.7,413.2,336.6,413.2,336.6z"/>
<path class="st1" d="M427.4,314.6c-1.1,0.3-2.1,0.7-3.1,1.3l1.9-3c3-4.8-6.6-9-7.6-12.8c0.8,4.9,6.6,6.2,5.6,11.1
	c-2.3-7.9-12.8-8.2-5-18.3c1.5,6.1,9,6.9,9.3,14.1c-2.5-5.8-7.3-5.5-9.4-11.9c-0.8,5.5,10.8,11.8,9,14.6c2.9-4.5,14.8-7,21.7-10.6
	c-3.1,0.7-10.8,3.6-12.5,3.6c5.6-4.2,19.7-7,28.7-13.1c-4.3,5.3-10.2,11.7-22.1,14.5c3.4-1.6,6.7-3.5,9.8-5.6
	c-8,4.4-21.3,7.7-24.1,12.4C427.9,313.9,427.4,314.6,427.4,314.6z"/>
<path class="st1" d="M724.8,787.3c23.9-16.4,63.4,8,89.4-0.8c-23.8,4.3-45-8.6-63.9-7.4c8.9-5.1,18.9-8.1,29.1-8.8
	c21.9-1.5,37.2,17.3,57.3,7.6c-8.3,7.5-28,22.5-43.9,23.7c-22.2,1.5-38.7-8.2-52.4-7.3c15.4-6.3,48.3,8.1,71.4-4.3
	c-23.2,8-64.5-8.7-85.4,5.9c-6.6,4.5-28,18.6-28,18.6c-3.7-1.2-7.6-2.1-11.5-2.5l12-7.5c8.4-23.1-2.9-49.4,10.2-68.8
	c-14,18.3-8.8,47.8-11.4,53.6c-5.5-12.8-9-48.7,30.9-70.8c-10.4,14,0.8,25.2,1.8,40.6s-17.5,32-17.5,32c3.7-19.3-9.9-44.8,6.6-63.6
	c-20.5,16.9-6.2,45.8-9.8,70C716,793.1,724.8,787.3,724.8,787.3z"/>
<path class="st1" d="M783.3,745.5c19.3-15.2,55.8,12.8,77.4-0.2c-21.7,6.3-44.4-9.4-54.4-6.7c27.7-19.7,44.7,1.1,58.5,0.1
	c9.8-0.7,20.6-8.3,20.6-8.3c-9.1,10.2-28.6,30.6-43.4,31.6c-17.8,1.2-41.5-10.4-52-7.5c11.2-9.7,47.5,9,70.3-5
	c-27.3,10.8-56.8-11-74.1,2.8c0,0-23.1,17.5-30.1,22.6c-5.3-0.8-10.7-0.2-15.8,1.8l12.3-8.6c4.9-17-2.3-51.3,14.4-75
	C747,712.7,753,741,750.5,747.6c-3.8-15.5-7.9-46.5,36.5-71.5c-12.4,18-2.2,27.3-3.3,38.5c-0.9,12.8-15.9,32.3-17.8,38.8
	c-0.4-17.8-4.1-46.6,10.5-67.3c-24,24.7-11.1,57.6-15.5,76C767.5,757.4,778.6,749.1,783.3,745.5z"/>
<path class="st1" d="M834.1,703.1c15.7-14.9,54.5,8.6,74.8-8c-22.9,10.1-42.2-1.8-54.5,0.5c0,0,10.8-8.2,27.9-9.4
	s22.5,11.9,41.7-4.1c0,0-18.8,31.4-41.5,33c-9.2,0.6-28.2-5-44.4-3.9c20.8-11.7,45.1,5.8,65.1-8.8c-19.1,10.3-52.6-6-64.5,5.3
	c-8,7.4-19.9,18.5-30.9,27.2c-8.1-1.3-12.5,1.3-12.5,1.3l10.5-8.4c9.3-17.7-1.8-53.2,10.5-74.5c-13.3,20.9-7.3,42.6-8.8,56.4
	c-1.9-10.6-6.5-20-5.5-32.3c1-12.9,10.6-26.3,28.1-40.6c0,0-6.7,8.2-0.7,28.1c4.5,15.5,1.6,30-11.5,46.9c2.4-25.4-5.5-34.1-0.8-54.8
	c-8.3,23.2,0.1,44.2-0.8,62C820.4,715.3,830.7,706.3,834.1,703.1z"/>
<path class="st1" d="M888.9,644c0,0,2.7-1.8,8.4-2c7.7-10.8,14.4-22.1,20.3-34c6.5-12.3,33.2-5.4,44.7-20.4c-9.8,18.2-34,9.6-42,23
	c8.1-5.2,23.4,1.3,33.3-5.7s13.2-20.8,14.6-36c0,0-3.8,8.4-10.2,8.8s-21.8-6.9-30.7,14.7c10.8-5.9,28-0.8,36.1-10.6
	c-8.1,16.7-42.7,6.5-49.1,21.5c-4.7,9.1-10.2,18.6-10.2,18.6c-1.2-28.8-18.1-37.1-19.7-60.9c4.2,20.2,20.5,31.8,22.5,52.3
	c15.4-41.7-18.5-41-23-70c0,0-11.8,26.9-5.4,44.5c6.6,18.3,15,24.1,16.8,34.7c-1.9-28.9-16.2-30.2-13.8-57.5
	c3.1,26.4,19.5,35.8,16,67.1L888.9,644z"/>
<path class="st1" d="M856.9,681.1c7.2-16.3-9.2-43.9,0.9-71c-11.5,29.2-2.2,40.8-1.8,58.6c-3.4-12.3-10.6-19.5-9.8-35.5
	s18.7-41.2,22.3-48.3c-4.6,46.3,22.5,47.7,0.5,79.8c1.2-13.6-14.7-26.4-5.4-62c-12.5,32.7,3.3,45.2,1.7,69.7
	c3.3-3.5,7.9-8.8,12.1-13.7c16.5-21.2,49.5,2.5,65.6-15.9c-16.7,9.7-31.3,0.7-45.9,3.2c25.1-19.4,43.5-0.8,55.6-15.5
	c-5.8,18.6-16.1,31.9-35,33.2c-10.7,0.7-23.8-2.8-32.1-1.1c15.7-10,44.3,1.4,54.5-13.9c-12.9,12.2-46.3-1.6-59.7,15.4
	c-7.9,9.8-17.7,19.8-25.2,27.6c-3.3-0.2-6.6,0.2-9.8,1L856.9,681.1z"/>
<path class="st1" d="M930.4,516.1c-2.3-10.7,15.6-11.3,24.4-24.7c-1.9,14.3-25.3,14.9-22.2,27.5c4-8.4,16.3-10.6,21.9-16
	c6.5-6.4,2-18.2-1.4-27.7c0,0,0.6,11.8-6.5,12.9s-17.5,3.2-18.6,16.6c8.2-9.6,21.8-5.3,26.1-18.2c0,0,0.4,7.9-12.2,13
	s-17,9.6-16,15.5c0.2,1.4,0.7,4,0.7,4c-5.8-10.1-29.2-20.2-38.4-33.4c10.5,10.5,21.7,13.9,34.3,22.9c-8.1-15.3-16.3-20.1-28.4-23.2
	c-9.3-2.4-14.8-14.7-14.8-14.7c5.6,39.9,26.8,39.1,39.3,51.2c-6.6-9.3-25.1-19.6-30.2-31.1c7.1,8.9,26.3,20.1,36,32.6
	c1.4,1.8,3.5,5.3,3.8,8c0.4,4.7,0.8,11.6,0.8,11.6s0.7-2.2,4.2-4.4C932.8,530.9,931.8,523.4,930.4,516.1z"/>
<path class="st1" d="M917.6,481.5c-14.2-12-31.5-11.5-35-20.2c8.5,6.9,20.8,6.7,30.3,14.5c-12.1-18.6-28.6-12.6-38.8-24.8
	c0,0,2.4,15.9,13.4,24.2c7.7,5.9,16.5,5,23.8,11.1c-3.4-8.5-22.4-10-28.4-21c7.1,8,23.6,11.2,33.4,20.4c1.5,1.5,3.5,2.9,4.1,4.8
	c1,3.7,3.1,12.1,3.1,12.1s0.1-2,3.1-4.2c-1.2-5-3.2-11.5-4.3-15.1c-3.1-9.6,16-13.5,20.5-23.1c-3.9,12.7-21.8,15.5-18.3,24.5
	c2.2-6.4,12.7-7.1,18.1-14c4.6-6,3.3-15.1-0.3-23.6c0.2,3.6-2.6,8.2-8.5,9.6c-7.3,1.9-13.3,5.9-13.6,14.7
	c3.4-6.3,15.9-6.1,22.3-15.3C939.3,467.1,914.6,471.9,917.6,481.5z"/>
<path class="st1" d="M876.3,378.3c-7.7-5.5-20.5-9.9-29.1-14.7c3.4,1.2,14.7,4,18.8,6.9c-8.6-12-21.8-9.1-34.4-18.2
	c8.1,22.1,28.2,20.3,32.4,24.5c-4.9-4.6-18.8-8.8-23.3-14.4c13.3,8.8,24.7,10.2,35.1,19.4c1,2,3.3,6.4,3.3,6.4c0.7-0.6,1.6-1,2.6-1
	c-1.4-2.7-2.2-4.1-2.2-4.1c-3.4-6.5,4.5-10.2,10.1-20.5c0.1,7.5-9.4,12.8-8.3,17.4c4.3-8.8,16.8-10.4,8.3-27.3
	c-0.1,6.1-13.9,9.5-13.1,20.8c1.8-5.6,12.8-10.8,13.5-16C887.2,367.2,875.6,371.9,876.3,378.3z"/>
<path class="st1" d="M864.1,356.9c-2.9-5.2,6-11.1,9-16.4c-1.5,4-7.8,10.6-7.4,14.2c3.8-5.6,17.1-14.4,7.1-26.1
	c-0.9,9.6-8.8,7.6-11.2,18.4c3.4-4.5,8.5-4.8,12.7-12.9c-2.8,8.5-11.1,11.2-13.7,18c-7.1-5.9-23.1-10.4-29.1-14.8
	c5.8,2.5,14.2,5.4,19.4,8.2c-12.3-12.2-20.8-9.8-34.1-17.9c10.2,21.4,27.7,19.5,30.5,22.5c-3.4-3.9-16-8.5-19.1-12.2
	c11.9,7.8,29.9,13.1,32.6,18.7l3.6,6.2c0.6-0.7,1.4-1.1,2.3-1.1L864.1,356.9z"/>
<path class="st1" d="M888.3,401.8c3.4-9.6,14.7-12.2,16.2-24.6c-3,9.3-11.3,10.2-13.6,17.5c-0.9-13.6,12.5-14.6,12.7-24
	c11.3,18-3.7,25.2-9.2,34.7c-1.7-5.1,9.2-13.3,11.1-21.4c-3.7,8.7-15.7,17.5-12.8,23.7c1,2.1,2.9,6.3,2.9,6.3
	c-0.9,0.8-1.7,1.8-2.2,3c-1.3-2.9-4-9-4-9c-9.2-11.4-28.8-14-39.8-24c6.2,8.6,25.9,13.5,33,20.5c-9.5-7.2-31.3-3.7-39.8-29.5
	c6.8,9,31.4,8.5,39.4,21.7c-10-6.5-21.4-8.2-32.1-14.3C858.7,389,876.7,393.6,888.3,401.8z"/>
<path class="st1" d="M900.7,434.2c-1.1-2.6-3.1-3.6-5-4.5c-8-4-23.9-10.8-31-16.8c9,9.9,28.2,16.4,31.2,20.3
	c-6.2-3-31.8-4.5-42.4-33.1c13.8,11.5,28.4,8.3,37.8,21.2c-5.4-3.4-16-4-25.9-11.5c9.7,9.7,26,12,34,17c3.7-7.9,14.9-14.1,17.9-22.1
	c-6,8.2-12.4,9.5-17.2,16.6c2.2-16.1,16.1-15.2,17.1-25.5c2.3,4.1,6.2,13.6,1.5,20.4s-10.3,8.9-13.4,15.5
	c-0.8-7.2,12.3-16,13.2-25.8c-2.5,8-10.7,13.6-14.3,20.7c-1.1,1.8-1.3,3.9-0.7,5.9c1.5,3.5,4.1,9.8,4.1,9.8
	c-1.2,0.6-2.1,1.6-2.6,2.9C903.8,441.8,900.7,434.2,900.7,434.2z"/>
<path class="st1" d="M908.1,454.2c-3-7.9,19-14.5,21.3-27.4c-4.5,11-14,9.9-17.8,17.5c-0.3-6.6,3.6-12.8,9.7-15.4
	c6.7-3,6.8-7.7,6.4-12.6c2.3,3.2,8.2,16.8,4.7,23.4s-12.2,7.9-18,16.5c-0.2-9.5,15.9-11.8,15.8-26.1c-4.8,11.6-21,17.4-17.5,26.2
	c1.8,4.9,3.9,10.8,3.9,10.8c-1,1.2-1.9,2.5-2.6,3.9c-1.1-3.4-2.8-8.2-2.8-8.2c-3.1-8.6-28.1-15.8-37.1-25.3
	c8,11.9,23.7,14.7,26.6,19.3c-10.5-5.3-29.1-4.6-35.1-30.4c14.2,12.4,27.2,7.8,36.8,21.5c-8.3-5.9-20.5-6.8-28.1-11.6
	C884,444.2,901.8,447.4,908.1,454.2"/>
<path class="st1" d="M561.2,895l-4.7-8.7l0,0c28.5-15.2,56.8-30.8,84.8-47c9.9-5.8,19.7-11.6,29.5-17.6c9-5.5,21.8-2.7,32,1.9
	s39.7,16.7,62.5,2.8c-27.4,11.3-61.2-8-68.1-7.5c41.5-24.6,49.5,15.8,87.7-4.7c-31.8,39.4-66.4,36.7-95.1,18.8
	c11.1-2.1,37.8,18.3,68.7-0.5c-35.9,16.5-68.2-13.1-83.3-3.5c-9.7,6.1-19.5,12-29.3,17.9C617.9,863.6,589.6,879.5,561.2,895
	L561.2,895z"/>
<path class="st1" d="M852.1,336.6c1.2,0.4,2.4,0.9,3.5,1.5l-2.1-3.5c-3.3-5.6,7.8-10.1,9.1-14.4c-1,5.6-7.7,6.9-6.7,12.6
	c2.8-9,14.8-9.1,6.1-20.8c-1.8,7-10.4,7.7-11,15.9c3-6.5,8.5-6.1,11-13.3c0.8,6.4-12.6,13.2-10.7,16.5c-3.2-5.2-16.7-8.4-24.6-12.7
	c3.5,0.8,12.3,4.4,14.2,4.5c-6.3-5-22.4-8.4-32.5-15.7c4.8,6.2,11.4,13.7,24.9,17.2c0,0-7.6-3.9-11.1-6.7c9,5.2,24.2,9.4,27.3,14.8
	C851.6,335.7,852.1,336.6,852.1,336.6z"/>
<path class="st1" d="M837.9,314.6c1.1,0.3,2.1,0.7,3.1,1.3l-1.9-3c-3-4.8,6.7-9,7.7-12.8c-0.8,4.9-6.6,6.2-5.6,11.1
	c2.3-7.9,12.8-8.2,5-18.3c-1.4,6.1-9,6.9-9.3,14.1c2.5-5.8,7.3-5.5,9.4-11.9c0.8,5.5-10.8,11.8-9,14.6c-2.9-4.5-14.8-7-21.7-10.6
	c3.1,0.7,10.8,3.6,12.5,3.6c-5.6-4.2-19.7-7-28.7-13.1c4.3,5.3,10.2,11.7,22.1,14.5c-3.4-1.6-6.7-3.5-9.8-5.6
	c8,4.4,21.3,7.7,24.2,12.4C837.5,313.9,837.9,314.6,837.9,314.6z"/>
<radialGradient id="SVGID_1_" cx="1309.5294" cy="822.4185" r="97.57" gradientTransform="matrix(1.33 0 0 -1.33 -1124.3201 1352.7101)" gradientUnits="userSpaceOnUse">
	<stop  offset="0.31" style="stop-color:#F17227"/>
	<stop  offset="0.42" style="stop-color:#EA6E26"/>
	<stop  offset="0.59" style="stop-color:#D66325"/>
	<stop  offset="0.78" style="stop-color:#B65022"/>
	<stop  offset="1" style="stop-color:#8A371E"/>
</radialGradient>
<path class="st2" d="M671.5,359.9c-23.3,0-52-14.8-74.9-38.5c-16.6-17.1-28.2-36.7-32.8-55.3c-4.7-18.9-1.5-34.5,8.9-43.9
	c6.4-5.8,15.3-8.9,25.7-8.9c23.3,0,52,14.7,74.9,38.5c16.5,17.1,28.2,36.7,32.8,55.3c4.7,18.9,1.5,34.5-8.9,43.9
	C690.8,356.8,681.9,359.9,671.5,359.9z"/>
<radialGradient id="SVGID_2_" cx="1319.0995" cy="646.7685" r="175.37" gradientTransform="matrix(1.33 0 0 -1.33 -1124.3201 1352.7101)" gradientUnits="userSpaceOnUse">
	<stop  offset="0.41" style="stop-color:#F17227"/>
	<stop  offset="0.51" style="stop-color:#EC6F27"/>
	<stop  offset="0.63" style="stop-color:#DD6725"/>
	<stop  offset="0.77" style="stop-color:#C55923"/>
	<stop  offset="0.91" style="stop-color:#A44620"/>
	<stop  offset="1" style="stop-color:#8A371E"/>
</radialGradient>
<path class="st3" d="M635.5,382.7c60.2,0,117.2,2.5,146.8,6.3c28.7,3.7,36.3,13.2,46,37.7c10.2,26,5.5,54.3-44.2,59.8
	c-33.7,3.2-44.3,17-44.3,38v83.4c-0.1,42.2-8.1,58.3-23,58.3c-17.5,0-25.7-17.3-25.7-58.3c0-49-0.3-74.3,0-83.4s-2.9-30.5-24-30.5
	c-13.3,0-22,14.1-22,30.5c0,22.5-0.5,80.6-0.5,95.8c0.2,28.7-11.2,41.9-25.5,41.9c-13,0-23.9-11.2-23.7-41.9
	c0.2-36.5-1.2-79.4-1.2-95.8s-4.2-30.5-23-30.5c-15,0.3-23,12.1-23,30.5c0,26.5-1.3,81.4-2.9,94.9c-1.6,19.1-8,32.9-24.8,33.2
	c-11.5,0.2-21.5-14.2-21.8-32.7c-0.6-33.4-0.9-69.3-0.9-95.5c0-27.6,3.4-54.5-26-69.3c-13.8-7-21.2-18.6-24.8-28.9
	c-6.8-19.6-3.5-39,65.1-41.9C537.7,382.7,635.4,382.7,635.5,382.7"/>
<path class="st4" d="M509.5,648.1c-6.3-5.6-10.6-16.1-10.8-28.2c-0.6-33.4-0.9-69.3-0.9-95.5c0-22.3,2.2-44.1-12.4-59.4
	c16.2,15.4,14,37.9,14,61c0,26.2,0.2,62.1,0.9,95.5C500.4,632.6,504.1,642.3,509.5,648.1z M448.5,427.8
	c-6.8-19.6-3.5-39.1,65.1-41.9c25.6-1.6,123.3-1.6,123.3-1.6c60.2,0,117.2,2.4,146.8,6.2c15,1.9,24.2,5.5,31,11.8
	c-6.9-7.3-16.4-11.2-32.5-13.3c-29.6-3.8-86.6-6.3-146.8-6.3c0,0-97.8,0-123.4,1.7c-68.5,2.8-71.9,22.3-65.1,41.9
	c2.7,7.8,7.1,14.9,13.1,20.7C454.9,441.4,451,434.9,448.5,427.8L448.5,427.8z M692.6,609.4c0-49.1-0.3-74.3,0-83.4
	c0.2-6.3-1.2-18.3-9-25.2c6.4,7.1,7.6,17.9,7.5,23.7c-0.3,9.1,0,34.4,0,83.4c0,28.8,4,46,12.5,53.6
	C696.2,653.2,692.6,636.5,692.6,609.4z M596.9,621.9c0.2-36.5-1.2-79.4-1.2-95.9c0-10.5-1.7-20.2-8-25.6c5,5.7,6.4,14.5,6.4,24.1
	c0,16.4,1.4,59.3,1.2,95.8c-0.1,19.6,4.2,31.2,10.7,37.1C600.5,651.1,596.8,639.9,596.9,621.9L596.9,621.9z"/>
<path class="st4" d="M598.1,322.9c-16.5-17-28.2-36.7-32.7-55.3c-4.7-18.9-1.6-34.5,8.8-43.9c6.4-5.8,15.3-8.9,25.8-8.9
	c22.3,0,49.7,13.6,72.2,35.7c-22.8-23-50.9-37.3-73.8-37.3c-10.4,0-19.3,3.1-25.7,8.9c-10.4,9.4-13.5,25-8.9,43.9
	c4.6,18.6,16.2,38.2,32.8,55.3c0.9,0.9,1.8,1.8,2.7,2.7C598.9,323.7,598.5,323.3,598.1,322.9z"/>
<path class="st1" d="M348.7,835.5c3.6-3.5,1.7-5.5-0.8-8.2l1.3-1.3c2.3,2.4,4.5,4.8,6.7,7.1s4.6,4.6,7.1,7.1l-1.3,1.3
	c-2.7-2.6-4.6-4.5-8.1-1.1L328,865.3c-3.5,3.5-1.7,5.5,0.8,8.2l-1.3,1.3c-2.4-2.4-4.4-4.7-6.6-7c-2.4-2.4-4.7-4.8-7.3-7.3l1.3-1.3
	c2.7,2.7,4.6,4.5,8.2,1.1L348.7,835.5z"/>
<path class="st1" d="M372.7,914.5l-1.3-1l-3-54.9L351.7,879c-6.2,7.6-6.8,9.6-0.9,14.5l-1.2,1.4c-2.4-2-4.8-4.1-7.2-6.1
	s-4.9-3.9-7.4-5.8l1.2-1.4c3.4,2.7,5.9,4.8,11.5-2.2l18-22.1c3.9-4.7,3.2-8.1-1.5-11.9l1.1-1.4c1.7,1.4,3.3,2.8,5,4.2
	c1.5,1.2,3.1,2.3,4.6,3.6c-0.5,5.2,0.5,14.3,1.2,26.3c0.5,9,1.2,18.6,1.6,25.7l17.8-21.8c4.1-5.1,4.2-7.5-1.2-12.1l1.2-1.4
	c2.5,2.1,5,4.3,7.5,6.3c2.1,1.8,4.3,3.3,6.5,5.1l-1.1,1.4c-3.4-2.7-5.4-3.9-9.8,1.5L372.7,914.5z"/>
<path class="st1" d="M394.8,914.6l1.4,0.8c-1.8,5.2-1.1,11.6,3.9,14.7c4.6,2.9,10.3,1.9,13.2-2.9c7-11.2-12.9-19-4.1-33.2
	c4.8-7.8,12.9-8.3,20.2-3.8c2.4,1.7,4.7,3.5,6.8,5.5l-3.8,8.3l-1.4-0.9c2-4.6,0.7-8.8-3.6-11.5c-4.6-2.8-9.3-1.2-12,3.2
	c-7,11.2,13.5,19.6,4.9,33.5c-4.9,7.8-14.6,7.9-21.7,3.4c-3.2-2-5.9-4.6-8-7.8L394.8,914.6z"/>
<path class="st1" d="M445.3,901.2c2.8,1.5,5.7,2.9,8.5,4.3c2.2,1,4.5,2,7.1,3.3c6.6,3.2,14.6,10.5,9.8,20.4
	c-3.7,7.5-13.2,9.3-19.9,6.1c-1.3-0.6-2.3-1.2-3.2-1.7l1-2.1c0.7,0.5,1.5,0.9,2.4,1.3c5.5,2.7,10.5-1.6,12.8-6.2
	c4.3-8.8-0.7-14.3-4.9-16.4c-0.9-0.5-1.9-0.9-2.9-1.2l-17.5,36c-2.2,4.5,0.2,5.7,3.6,7.4l-0.8,1.7c-3.1-1.5-5.8-3-8.6-4.3
	c-3-1.5-6.1-2.9-9.3-4.4l0.8-1.7c3.4,1.6,5.9,2.7,8-1.8l14.8-30.3c2.4-4.9,2.2-6.6-2.6-9L445.3,901.2z"/>
<path class="st1" d="M486.2,927.5c1.8-4.6-0.7-5.7-4.2-7.1l0.6-1.7c3.1,1.3,6.1,2.5,9.1,3.6s6.1,2.3,9.4,3.5l-0.6,1.7
	c-3.5-1.3-6.1-2.2-7.9,2.5l-12.7,33.2c-1.8,4.6,0.7,5.7,4.2,7.1l-0.6,1.7c-3.2-1.2-6-2.4-8.9-3.5c-3.2-1.2-6.3-2.3-9.6-3.5l0.7-1.7
	c3.5,1.3,6.1,2.2,7.8-2.5L486.2,927.5z"/>
<path class="st1" d="M512.7,957l-4.3,15.9c-1.3,4.8,1.3,5.6,4.9,6.6l-0.5,1.8c-3.3-0.9-6.2-1.8-9.2-2.7c-3.3-0.9-6.5-1.7-10-2.6
	l0.5-1.8c3.4,1.1,6.4,1,7.5-2.9l9.5-34.7c1.3-4.8-1.3-5.5-4.9-6.6l0.5-1.8c3.7,1.1,7,2.1,10.3,3c2.4,0.7,4.8,1.2,9.2,2.4
	c12.9,3.5,13.8,11.5,12.5,16.4c-1.6,5.8-7.1,8.9-12.9,9c3.7,10.8,5.5,17.1,7.6,21.2c1.5,3.1,3.1,5.5,6.5,6.4l-0.5,1.8
	c-1.7-0.5-3.4-1.1-5.1-1.5c-1.9-0.5-3.9-1-5.8-1.5c-4.4-8.5-6.8-17.8-9.6-26.8L512.7,957z M523,935.1c-1.4-0.4-2.8-0.6-4.2-0.7
	l-5.5,20c1.1,0.6,2.3,1,3.5,1.3c8.4,2.3,13.2-2.3,14.5-7.3C533,942.5,531,937.3,523,935.1z"/>
<path class="st1" d="M567.6,965.6l9.2,1.3c5.7,0.8,6.3-3.6,6.8-5.2l1.4,0.2c-0.4,1.5-1,5.3-1.4,7.8c-0.3,2.2-0.4,5.6-0.8,7.8
	l-1.4-0.2c1-6.7-1.3-7-6.7-7.8l-7.5-1.1l-1.7,11.9c-1.1,7.8-1.1,9.8,5.8,10.8l4.3,0.6c6.9,0.6,10.1,0.2,13.9-7l1.6,0.5
	c-1.7,3.3-3.1,6.8-4.4,10.3c-7-1-14-2.1-21-3.1c-5.2-0.7-10.4-1.5-15.6-2.1l0.3-1.8c6.1,0.9,6.8-0.2,7.8-7l4.5-31.1
	c0.8-5.8-0.3-6.2-5.8-7.2l0.3-1.8c4.7,0.8,9.4,1.5,14.1,2.2c6.7,1,13.4,1.9,20.2,2.8l-1.5,10.5l-1.5,0.1c-0.1-6.7-3-9.2-10-10.2
	l-8.2-1.2L567.6,965.6z"/>
<path class="st1" d="M607.3,955.7c0.1-6.4-3.2-6-6.4-6.1v-1.9c2.8,0.2,5.6,0.2,8.4,0.3c3,0,7,0,12.3,0c18.3,0.3,28.2,12.7,28,25.2
	c-0.1,7-4.5,24.6-29.6,24.2c-3.6-0.1-6.9-0.2-10.3-0.3s-6.3,0-9.5,0v-1.8c4.3-0.4,6.3-0.5,6.6-5.3L607.3,955.7z M613.8,989
	c-0.1,5.5,3.8,6.2,7.3,6.2c15.3,0.2,20.5-11.2,20.7-21.8c0.2-13.3-8.1-22.9-21.8-23.2c-2.9,0-4.3,0.2-5.5,0.2L613.8,989z"/>
<path class="st1" d="M688.1,992.9c3.5-0.4,6.2-1.8,5.6-5.7l-5.9-35.4c-0.8-4.9-3.5-4.5-7.2-4l-0.3-1.8c2-0.3,3.9-0.5,5.8-0.8
	l2.2-0.4c4-0.7,6.6-1.2,9.1-1.7c5.2-0.8,16.5-1.2,18.2,8.6c1.1,6.5-4.2,10.8-9.4,13v0.1c5.2-1.2,16.3,0.6,17.9,10.5
	c1.2,7.5-4.2,14.2-16.6,16.2c-3.3,0.5-6.6,0.9-9.9,1.5c-3.1,0.5-6.2,1.1-9.1,1.7L688.1,992.9z M697.2,965.8l2.7-0.4
	c5.7-0.9,10.3-3.6,8.9-12.4c-1.3-8-6.3-8.5-11.9-7.5c-0.9,0.1-1.9,0.4-2.9,0.6L697.2,965.8z M700.3,984.5c0.5,3.1,0.9,5.7,7.2,4.7
	c8.3-1.4,10.1-7.5,9.4-11.8c-1.7-10-8.2-11.2-15.2-10l-4.2,0.7L700.3,984.5z"/>
<path class="st1" d="M762.7,971.4c1.4,4.7,4,4,7.6,3l0.5,1.8c-3.4,0.9-6.6,1.8-9.7,2.7s-6.2,1.9-9.3,2.9l-0.5-1.8
	c3.6-1.1,6.1-2,4.7-6.7l-4.9-16.4l-20-15.3c-2.8-2.2-3.1-2-7.2-1.1l-0.5-1.8c1.3-0.3,6.4-1.8,9.5-2.7c2.8-0.8,5.5-1.8,8.2-2.6
	l0.5,1.8c-1.1,0.3-3.8,1.1-3.4,2.5c0.2,0.8,1.7,2.1,3.5,3.5l13.5,10.5l5.3-14.8c0.5-1.4,1.7-4.1,1.2-5.7c-0.6-2-1.9-1.6-5.4-0.5
	l-0.5-1.8c2.6-0.7,5.3-1.4,7.8-2.2c1.8-0.6,3.6-1.2,5.5-1.8l0.5,1.8c-2.8,0.9-3.6,3.1-4.5,5.6l-7.8,21.4L762.7,971.4z"/>
<path class="st1" d="M850.1,941.7c-5.4,2.6-10.7,5.3-16.1,8c-5.6,2.9-11.2,5.7-16.6,8.7l-0.8-1.6c3.2-1.4,5.4-3.6,3.6-7.1l-16.3-32
	c-2.3-4.4-4.7-3.2-8.1-1.6l-0.8-1.7c3-1.5,5.9-2.9,8.8-4.3s5.8-3,8.9-4.7l0.8,1.6c-3.3,1.8-5.7,3.1-3.4,7.5l14.9,29.2
	c2.4,4.7,4.4,6.1,13.3,1.5c7.3-3.7,8.9-6.8,7.8-13.9l1.5-0.5L850.1,941.7z"/>
<path class="st1" d="M843.4,895.9c-2.7-4.2-5-2.8-8.2-0.8l-1-1.5c2.8-1.7,5.7-3.4,8.3-5.1s5.5-3.5,8.4-5.5l1,1.5
	c-3.1,2.1-5.4,3.6-2.7,7.8l19,30.1c2.7,4.2,5,2.8,8.2,0.8l1,1.6c-2.9,1.8-5.5,3.3-8.2,5c-2.9,1.8-5.6,3.7-8.6,5.6l-1-1.5
	c3.1-2.1,5.4-3.6,2.7-7.8L843.4,895.9z"/>
<path class="st1" d="M892.7,905.2c3,3.9,5.2,2.4,8.2,0.1l1.1,1.5c-2.9,2.1-5.5,4-8.1,6s-5.1,4-7.9,6.2l-1.1-1.5
	c4.9-3.8,4.7-5,0.5-10.5l-19.1-25c-3.5-4.6-4.6-4.2-9.2-0.9l-1.1-1.5c4-3.1,8.2-6.1,12.3-9.2c5.1-3.9,10.3-7.9,15.2-11.8l6.4,7.7
	l-1.1,1.2c-4.2-4.3-7.8-4.1-13.9,0.6l-6.7,5.1l12.2,16l6.6-5c4.6-3.5,4.5-4.5,2.2-9.1l1.3-1c0.7,1.1,2.9,4.3,4.5,6.3
	c1.4,1.8,3.5,4.4,4.8,5.8l-1.1,0.9c-3.6-3.4-4.6-4.6-9.6-0.8l-6.9,5.2L892.7,905.2z"/>
<path class="st1" d="M913.7,861.3l6.7-6.5c4.1-4,1-7.2,0-8.5l1-1c1,1.2,3.5,4.1,5.3,5.9c1.6,1.6,4.2,3.8,5.7,5.5l-1,1
	c-4.7-4.9-6.4-3.3-10.3,0.5l-5.5,5.3l8.4,8.7c5.5,5.7,7,6.9,12.1,2l3.2-3.1c4.8-5.1,6.3-7.9,3.1-15.3l1.4-1c1.6,3.4,3.4,6.7,5.5,9.8
	c-5.1,4.9-10.3,9.8-15.4,14.7c-3.8,3.7-7.5,7.3-11.2,11.1l-1.3-1.3c4.4-4.3,4-5.5-0.7-10.4l-21.9-22.7c-4-4.2-5.1-3.6-9.2,0.1
	l-1.3-1.3c3.5-3.2,7-6.6,10.4-9.9c4.9-4.7,9.7-9.4,14.6-14.2l7.3,7.6l-0.8,1.2c-5.4-4-9.1-3.3-14.2,1.7l-6,5.8L913.7,861.3z"/>
<path class="st0" d="M1251,500.3l91.3-201.6c5.9,0,12.2,0.3,18.9,0.8c6.7,0.5,13.5,0.8,20.4,0.8c6.7,0,13.5-0.3,20.4-0.8
	c7-0.5,13.8-0.8,20.4-0.8v11.6h-3.5c-2.8,0-6.3,0.1-10.4,0.4c-3.9,0.2-7.8,0.9-11.6,2.1c-3.5,1.1-6.7,2.9-9.4,5.4
	c-2.7,2.5-4.3,6.1-4.4,9.8c-0.3,5.2-0.1,10.4,0.4,15.6c0.5,5.3,1,10.1,1.5,14.5l14.7,176.5c0.2,4.9,1.2,8.7,2.7,11.4
	c1.5,2.7,3.7,4.9,6.4,6.4c3.2,1.7,6.6,2.7,10.2,2.9c4.1,0.4,9.1,0.7,15,1v11.6c-9-0.5-18.2-0.9-27.6-1.2c-9.4-0.3-18.7-0.4-27.9-0.4
	c-10.8,0-21.4,0.1-31.8,0.4s-21,0.6-31.8,1.2v-11.6c4.9-0.3,9.4-0.6,13.5-1c3.6-0.3,7.2-1.1,10.6-2.3c2.7-1,5-2.7,6.7-5
	c1.5-2.2,2.3-5.5,2.3-9.8v-7.3c0-2.6-0.1-6.4-0.4-11.6l-10.8-162.6h-0.8l-98.3,217h-9.2l-93.3-212.7h-0.8L1121.5,530
	c0,6.2,0.7,10.9,2.1,14.3c1.2,3.1,3.3,5.8,6,7.7c3.2,1.9,6.7,3,10.4,3.3c4.1,0.4,8.9,0.7,14.2,1h4.6v11.6
	c-8.7-0.5-17.5-0.9-26.2-1.2c-8.7-0.3-17.5-0.4-26.2-0.4c-7.5,0-15,0.1-22.7,0.4c-7.7,0.3-15.3,0.6-22.8,1.1v-11.6h5.4
	c7.7-0.3,13.7-1.3,17.9-3.1c4-1.6,7.4-4.3,9.8-7.9c2.5-3.9,4.1-8.3,4.8-12.9c0.9-5.1,1.7-11.2,2.5-18.1L1113,407
	c1.5-13.9,2.7-26.7,3.5-38.5c0.8-11.8,1.2-21.6,1.2-29.3c0.1-4.7-0.8-9.4-2.9-13.7c-1.8-3.5-4.3-6.6-7.5-8.9
	c-3.3-2.3-6.9-3.9-10.8-4.8c-4-1-8.2-1.5-12.3-1.5h-5v-11.5c8,0,15.8,0.3,23.5,0.8c7.7,0.5,15.5,0.8,23.5,0.8
	c5.9,0,11.7-0.3,17.3-0.8c5.7-0.5,11.4-0.8,17.3-0.8L1251,500.3z"/>
<path class="st0" d="M1508.4,512.6c-2.1,6.7-4,12.4-5.8,17.3c-1.6,4.1-2.5,8.4-2.7,12.7c-0.1,2.6,0.9,5.1,2.7,6.9
	c2,1.9,4.3,3.4,6.9,4.2c3,1.1,6.2,1.7,9.4,1.9c3.5,0.3,6.7,0.4,9.8,0.4h4.2v11.6c-7.7-0.5-15.5-0.9-23.3-1.2
	c-7.8-0.3-15.6-0.4-23.3-0.4c-6.9,0-13.9,0.1-20.8,0.4s-13.9,0.6-20.8,1.2v-11.6h2.3c7.2,0.1,14.3-2.2,20.2-6.4
	c6-4.2,10.4-10.5,13.3-18.7l61.7-176.9c2.6-7.2,5.3-15.1,8.1-23.9c2.6-7.8,4.6-15.8,6.2-23.9c6.7-2.3,13.2-5,19.5-8.1
	c5.4-2.5,10.6-5.4,15.6-8.5c1-0.4,2-0.6,3.1-0.8c1-0.1,2.1,0.3,2.7,1.2c0.5,1.5,1.1,3.1,1.7,4.8s1.2,3.3,1.7,4.8l70.9,201.6
	c2.3,6.7,4.6,13.4,6.9,20.2c2.3,6.8,4.8,13.2,7.3,19.1c4.4,10.3,12.8,15.4,25.4,15.4h2.3v11.6c-8.7-0.5-17.5-0.9-26.2-1.2
	c-8.7-0.3-17.7-0.4-27-0.4c-9.5,0-19.1,0.1-28.7,0.4c-9.6,0.3-19.3,0.6-29.1,1.2v-11.6h4.2c2.3,0,4.8-0.1,7.5-0.4
	c2.6-0.2,5.2-0.8,7.7-1.5c2.3-0.7,4.4-1.9,6.2-3.5c1.7-1.5,2.6-3.6,2.6-5.8c0-2.6-0.8-6.3-2.3-11.2s-3.3-10.4-5.4-16.6l-15-44.7
	h-87.5L1508.4,512.6z M1564.7,341.9h-0.8L1528.1,451h72.1L1564.7,341.9z"/>
<path class="st0" d="M1974,491.8l0.8-0.8V346.5c0-8-1.2-14.3-3.7-19.1c-2.1-4.3-5.1-8.1-8.9-11c-3.2-2.5-7-4.2-11-5
	c-3.3-0.7-6.6-1.1-10-1.1h-8.5v-11.6c9,0,18,0.3,27,0.8c9,0.5,18,0.8,27,0.8c8,0,15.9-0.3,23.7-0.8c7.8-0.5,15.7-0.8,23.7-0.8v11.6
	h-5.8c-4.1,0-8.3,0.4-12.3,1.1c-4.2,0.8-8.1,3-11,6.2c-3.2,3.3-5.9,8.2-7.9,14.6s-3.1,15.4-3.1,27v175.3c0,6.7,0.1,13.3,0.4,20
	c0.2,6.3,0.9,12.6,1.9,18.9h-14.6l-198.6-221.2v158.8c-0.1,7.1,0.4,14.2,1.5,21.2c0.8,5,2.7,9.8,5.6,13.9c2.8,3.7,6.6,6.3,11,7.7
	c4.6,1.5,10.7,2.3,18.1,2.3h6.6v11.6c-8.2,0-16.5-0.3-24.9-0.8c-8.3-0.5-16.6-0.8-24.9-0.8c-8.7,0-17.5,0.3-26.2,0.8
	s-17.5,0.8-26.2,0.8v-11.6h5.4c13.3,0,22.5-4.3,27.4-12.9s7.3-20.6,7.3-36V345c0.1-5-1-9.9-3.1-14.5c-2-4.1-4.6-7.8-7.9-11
	c-3.2-3.1-7-5.4-11.2-6.9c-4.1-1.5-8.5-2.3-12.9-2.3h-5v-11.6c7.4,0,14.8,0.3,22.2,0.8c7.3,0.5,14.7,0.8,22.2,0.8
	c5.9,0,11.6-0.3,17.2-0.8c5.5-0.5,11.2-0.8,17.2-0.8L1974,491.8z"/>
<path class="st0" d="M2044.8,556.2h5.4c3.4,0,6.8-0.2,10.2-0.6c3.2-0.3,6.4-1.3,9.2-2.9c2.7-1.6,5-3.8,6.6-6.5
	c1.7-2.8,2.5-6.8,2.5-12V332.3c0-4.9-0.8-8.8-2.5-11.8c-1.5-2.8-3.8-5.1-6.6-6.7c-2.9-1.6-6-2.6-9.2-2.9c-3.4-0.4-6.8-0.6-10.2-0.6
	h-5.4v-11.6c7.5,0,16.5,0.3,27,0.8c10.5,0.5,20.6,0.8,30.1,0.8c9.8,0,20-0.3,30.8-0.8c10.8-0.5,20.7-0.8,29.7-0.8v11.6h-5.4
	c-3.5,0-7,0.2-10.4,0.6c-3.2,0.3-6.3,1.3-9.1,2.9c-2.8,1.6-5,3.9-6.6,6.7c-1.7,3-2.5,6.9-2.5,11.8v201.9c0,5.1,0.8,9.1,2.5,12
	c1.6,2.7,3.8,5,6.6,6.5c2.8,1.6,5.9,2.6,9.1,2.9c3.5,0.4,6.9,0.6,10.4,0.6h5.4v11.6c-9.2,0-19.3-0.3-30.1-0.8
	c-10.8-0.5-21.1-0.8-30.8-0.8c-9.5,0-19.5,0.3-29.9,0.8s-19.3,0.8-26.8,0.8L2044.8,556.2z"/>
<path class="st0" d="M2256.4,524.2c0,7.7,1,13.7,2.9,18.1c1.6,3.9,4.3,7.3,7.9,9.6c3.6,2.1,7.6,3.4,11.8,3.7
	c4.5,0.4,9.2,0.6,14.1,0.6h6.2v11.6c-9.8,0-19.5-0.3-29.3-0.8c-9.8-0.5-19.5-0.8-29.3-0.8c-10.8,0-21.4,0.3-31.8,0.8
	s-21.1,0.8-32.2,0.8v-11.6h6.2c2.9,0,5.8-0.2,8.7-0.6c2.9-0.4,5.7-1.6,7.9-3.5c2.3-1.9,4.2-5,5.6-9.2s2.1-10.2,2.1-17.9V340.8
	c0.1-5.2-0.3-10.5-1.4-15.6c-0.6-3.5-2.2-6.7-4.6-9.2c-2.2-2.2-5-3.8-8.1-4.4c-3.9-0.8-7.8-1.2-11.8-1.1h-4.6v-11.6
	c6.9,0,15.2,0.3,24.9,0.8c9.6,0.5,19.3,0.8,29.1,0.8c10,0,19.7-0.3,29.1-0.8c9.4-0.5,18.5-0.8,27.2-0.8c12.2-0.1,24.3,1.1,36.2,3.7
	c10.3,2.1,20,6.2,28.7,12.1c8.2,5.7,14.7,13.5,18.9,22.5c4.5,9.4,6.7,21.1,6.7,35.3c0.2,10.5-1.7,20.9-5.6,30.6
	c-3.6,8.9-8.9,16.9-15.6,23.7c-6.8,6.8-14.9,12.3-23.7,16.2c-9.3,4.2-19.3,6.8-29.5,7.7c-5.9,0.5-11.4,0.8-16.6,0.8h-14.3v-11.6h8.1
	c7.1,0.2,14.1-1.6,20.2-5c5.8-3.3,10.7-8,14.3-13.7c4-6.4,6.8-13.4,8.3-20.8c1.9-8.7,2.8-17.5,2.7-26.4c0-18.5-4.7-33.3-14.1-44.5
	s-24.1-16.8-44.1-16.8h-11.2L2256.4,524.2z"/>
<path class="st0" d="M2429.1,512.6c-2.1,6.7-4,12.4-5.8,17.3c-1.6,4.1-2.5,8.4-2.7,12.7c-0.1,2.6,0.9,5.1,2.7,6.9
	c2,1.9,4.3,3.4,6.9,4.2c3,1.1,6.2,1.7,9.4,1.9c3.5,0.3,6.7,0.4,9.8,0.4h4.2v11.6c-7.7-0.5-15.5-0.9-23.3-1.2
	c-7.8-0.3-15.6-0.4-23.3-0.4c-6.9,0-13.9,0.1-20.8,0.4s-13.9,0.6-20.8,1.2v-11.6h2.3c7.2,0.1,14.3-2.2,20.2-6.4
	c6-4.2,10.4-10.5,13.3-18.7l61.7-176.9c2.6-7.2,5.3-15.1,8.1-23.9c2.6-7.8,4.6-15.8,6.2-23.9c6.7-2.3,13.2-5,19.5-8.1
	c5.4-2.5,10.6-5.4,15.6-8.5c1-0.4,2-0.6,3.1-0.8c1-0.1,2.1,0.3,2.7,1.2c0.5,1.5,1.1,3.1,1.7,4.8s1.2,3.3,1.7,4.8l70.9,201.6
	c2.3,6.7,4.6,13.4,6.9,20.2c2.3,6.8,4.8,13.2,7.3,19.1c4.4,10.3,12.8,15.4,25.4,15.4h2.3v11.6c-8.7-0.5-17.5-0.9-26.2-1.2
	c-8.7-0.3-17.7-0.4-27-0.4c-9.5,0-19.1,0.1-28.7,0.4s-19.3,0.6-29.1,1.2v-11.6h4.2c2.3,0,4.8-0.1,7.5-0.4c2.6-0.2,5.2-0.8,7.7-1.5
	c2.3-0.7,4.4-1.9,6.2-3.5c1.6-1.5,2.5-3.6,2.5-5.8c0-2.6-0.8-6.3-2.3-11.2s-3.3-10.4-5.4-16.6l-15-44.7h-87.5L2429.1,512.6z
	 M2485.3,341.9h-0.8L2448.7,451h72.1L2485.3,341.9z"/>
<path class="st0" d="M2731.6,530c0,7.7,2.3,13,6.9,16c4.9,3.1,10.4,5,16.2,5.6c7.9,0.5,16.2,0.8,24.7,0.8c8.8,0,17.5-0.5,26.2-1.5
	c14.6-1.7,27.9-9.2,37-20.8c3-4.3,5.5-8.9,7.3-13.9c1.8-4.9,3.3-9.5,4.6-13.9h11.2c-2.1,11-4.4,22-6.9,32.8s-5,21.7-7.3,32.8
	c-16.9,0-33.9-0.3-50.9-0.8c-17-0.5-33.9-0.8-50.9-0.8c-17,0-33.9,0.3-50.9,0.8s-33.9,0.8-50.9,0.8v-11.6h5.4
	c3.4,0,6.8-0.2,10.2-0.6c3.4-0.4,6.6-1.5,9.4-3.3c2.9-1.9,5.3-4.7,6.7-7.9c1.7-3.5,2.5-8.2,2.5-14.1V332.3c0-4.9-0.8-8.8-2.5-11.8
	c-1.6-2.8-3.9-5.2-6.7-6.7c-2.9-1.6-6.1-2.6-9.4-2.9c-3.4-0.4-6.8-0.6-10.2-0.6h-5.3v-11.6c10.3,0,20.4,0.3,30.4,0.8
	c10,0.5,20.2,0.8,30.4,0.8c9.8,0,19.5-0.3,29.3-0.8c9.8-0.5,19.5-0.8,29.3-0.8v11.6h-9.6c-3.6,0-7,0.1-10.2,0.4
	c-2.9,0.2-5.7,1-8.3,2.3c-2.5,1.4-4.4,3.6-5.6,6.2c-1.4,2.8-2.1,6.8-2.1,12L2731.6,530z"/>
<path class="st0" d="M1084.1,935.2c-10.8,17.6-18.3,31.6-18.3,52.5c0.1,6.9,1,13.8,2.8,20.5l-2.1,1c-3.7-7.4-6.2-15.5-6.2-23.7
	c0-20.3,10-35.7,22-51.2L1084.1,935.2z"/>
<path class="st0" d="M1083,991.1h1.4c4.6,0,5.1-1,6.3-5.9l8-43.8c0.8-4.1-3.2-3.8-5.5-3.8h-1.5l0.4-2.2c4.1,0.2,8.1,0.2,12.2,0.2
	c3.1,0,6.4-0.2,9.7-0.2l-0.4,2.2h-1.5c-0.8,0-5-0.5-5.8,3.6l-8.1,44.1c-0.9,5,0.3,5.8,5.5,5.8h1.2l-0.4,2.2c-3.6,0-7.4-0.2-11-0.2
	s-7.2,0.1-10.8,0.2L1083,991.1z"/>
<path class="st0" d="M1115.4,965.9c3.2-3.9,8.9-10.4,14.4-10.4c1.4-0.2,2.7,0.9,2.8,2.3c0,0.2,0,0.4,0,0.5c-0.1,1.4-0.4,2.7-0.9,4
	l-4.3,12.5h0.2c4-5.7,16.2-19.3,24.3-19.3c2.6,0,3.3,1.6,3.3,3.4c-0.1,1.4-0.3,2.7-0.8,4l-6.6,18.2c-0.6,1.4-1.1,2.8-1.2,4.3
	c0,1,0.3,1.7,1.5,1.7c2.2,0,5.9-3.9,7.1-5.8l1.4,1.1l-3,3.6c-2.9,3.6-7,7.2-11.5,7.2c-2.1,0-3.1-1.2-3.1-2.7
	c0.1-1.8,0.5-3.5,1.2-5.1l6.4-17.6c0.5-1.3,0.9-2.7,1.1-4.1c-0.1-0.9-0.9-1.6-1.8-1.6c0,0-0.1,0-0.1,0c-4.6,0-9.3,5.5-12.1,8.6
	c-4.6,4.9-8.1,10.6-10.3,16.9l-1.7,4.7c-0.2,0.7-2.1,0.9-3.1,0.9c-1,0-1.9-0.4-2.7-1.1l8.1-24.4c0.5-1.3,0.8-2.7,1-4.1
	c0-0.8-0.3-1.5-1.3-1.5c-1.7,0-3.3,1.3-4.8,2.8l-2.2,2.5L1115.4,965.9z"/>
<path class="st0" d="M1163.1,982.9c0.8,4.7,6.2,6.6,10.5,6.6c2.3,0,7.4-0.6,7.4-3.7c0-5.7-12.1-9.3-14.5-14.6
	c-0.5-1.2-0.8-2.5-0.8-3.8c0-4.3,5.8-8,9-10.1c1.8-1.3,3.9-1.9,6.1-1.8c3.4,0,7.2,0.9,7.2,5c0,1-0.8,3.7-1.7,3.7h-1
	c-0.7,0-0.8-0.6-1.2-1.2c-0.8-1.6-4.1-3-6.8-3s-6.2,1.5-6.2,4.7c0,6.8,14.6,8.6,14.6,17.2c0,3.2-3.2,6.8-5.4,8.8
	c-2.6,2.6-6.2,4-9.8,3.8c-4,0-10.5-1.2-10.5-6.5c0-1.9,1-3.5,1.9-5.1L1163.1,982.9z"/>
<path class="st0" d="M1207.7,946.3h6.6l-3.4,10.4h8.8l-1,3.4h-8.7l-7.2,23.9c-0.3,0.8-0.5,1.7-0.5,2.6c0,1,0.4,1.8,1.7,1.8
	c3.2,0,8.1-5,10.3-7.2l1.2,1.4c-3.7,4.1-10.5,11.9-16.5,11.9c-2.4,0-3.7-2.2-3.7-4.3c0.1-1.8,0.5-3.6,1.1-5.3l7.4-24.8h-8.1l1-3.4h8
	L1207.7,946.3z"/>
<path class="st0" d="M1222.7,966.2c2.4-3.6,8.4-10.7,13.1-10.7c2,0,2.6,0.8,2.6,2.1c-0.2,1.6-0.6,3.1-1.2,4.6l-6.8,21
	c-0.4,1.1-0.7,2.3-0.8,3.5c0,0.8,0.2,1.2,1.1,1.2c1.2,0,5.5-4.5,6.3-5.4l1.3,1.1c-2.6,3.5-8.4,10.9-13.2,10.9
	c-2.4,0-3.1-1.4-3.1-3.3c0.1-1.4,0.4-2.7,0.9-4l7.1-21c0.4-1,0.6-2,0.7-3c0-0.5-0.3-1-0.8-1c-0.1,0-0.1,0-0.2,0
	c-1.7,0-4.9,4-5.9,5.3L1222.7,966.2z M1241.4,940.1c0,2.1-1.8,3.8-3.9,3.7c-2.1,0-3.8-1.8-3.7-3.9c0-2.1,1.7-3.7,3.8-3.7
	C1239.7,936.3,1241.4,938,1241.4,940.1L1241.4,940.1z"/>
<path class="st0" d="M1258.2,946.3h6.6l-3.4,10.4h8.8l-1,3.4h-8.8l-7.2,23.9c-0.3,0.8-0.5,1.7-0.5,2.6c0,1,0.4,1.8,1.7,1.8
	c3.2,0,8.1-5,10.2-7.2l1.2,1.4c-3.7,4.1-10.5,11.9-16.5,11.9c-2.4,0-3.6-2.2-3.6-4.3c0.1-1.8,0.5-3.6,1.1-5.3l7.4-24.8h-8.1l1-3.4h8
	L1258.2,946.3z"/>
<path class="st0" d="M1312.2,983.2c-3.4,3.7-8.6,10.1-14.1,10.1c-2,0-3.1-1.1-3.1-2.9c0.2-2.1,0.8-4.2,1.6-6.1l5-14.7h-0.2
	c-4.1,5.2-17.5,23.7-25.6,23.7c-1.8,0-3.4-1.4-3.5-3.2c0.1-1.2,0.4-2.4,0.8-3.6l7.2-21.3c0.2-0.6,0.3-1.2,0.3-1.8
	c0-0.7-0.2-1.2-1.1-1.2c-2.4,0-5.3,3.8-6.9,5.4l-1.3-1.4l2.8-2.9c3.4-3.4,7.8-7.7,11.7-7.7c1.4-0.1,2.6,0.9,2.7,2.2
	c0,0.1,0,0.3,0,0.4c-0.1,1.5-0.5,2.9-1.1,4.3l-7.5,22.2c-0.1,0.4-0.2,0.8-0.2,1.2c0,0.6,0.7,0.8,1.4,0.8c5.6,0,21.3-21.2,24.1-28.6
	c0.6-1.5,1.2-2.6,2.8-2.6c1.4,0,2.8,1.6,3.7,2.4l-9,27c-0.2,0.4-0.2,0.8-0.3,1.2c-0.1,0.6,0.4,1.1,1,1.2c0.1,0,0.2,0,0.3,0
	c2.1,0,5.5-3.8,7.2-5.1L1312.2,983.2z"/>
<path class="st0" d="M1331.8,946.3h6.6l-3.4,10.4h8.8l-1,3.4h-8.8l-7.2,23.9c-0.3,0.8-0.5,1.7-0.5,2.6c0,1,0.4,1.8,1.7,1.8
	c3.2,0,8.1-5,10.3-7.2l1.2,1.4c-3.7,4.1-10.5,11.9-16.5,11.9c-2.4,0-3.7-2.2-3.7-4.3c0.1-1.8,0.5-3.6,1.1-5.3l7.4-24.8h-8.1l1-3.4h8
	L1331.8,946.3z"/>
<path class="st0" d="M1346.9,966.2c2.4-3.6,8.4-10.7,13.1-10.7c2,0,2.6,0.8,2.6,2.1c-0.2,1.6-0.6,3.1-1.2,4.6l-6.8,21
	c-0.4,1.1-0.7,2.3-0.8,3.5c0,0.8,0.2,1.2,1.1,1.2c1.2,0,5.5-4.5,6.3-5.4l1.3,1.1c-2.6,3.5-8.4,10.9-13.2,10.9
	c-2.4,0-3.1-1.4-3.1-3.3c0.1-1.4,0.4-2.7,0.9-4l7.1-21c0.4-1,0.6-2,0.8-3c0-0.5-0.3-1-0.8-1c-0.1,0-0.1,0-0.2,0
	c-1.8,0-4.9,4-5.9,5.3L1346.9,966.2z M1365.6,940.1c0,2.1-1.8,3.8-3.9,3.7c-2.1,0-3.8-1.8-3.7-3.9c0-2.1,1.7-3.7,3.8-3.7
	C1363.9,936.3,1365.5,938,1365.6,940.1z"/>
<path class="st0" d="M1392,955.5c9.6,0,15.9,7.3,15.9,16.8c0,11.7-9.9,22.3-21.8,22.3c-9.9,0-16.3-6.6-16.3-16.6
	C1369.8,966,1380,955.5,1392,955.5z M1386,992.4c10.7,0,15.2-14.5,15.2-23.1c0-5.9-2.2-11.7-9.3-11.7c-11.1,0-15.5,14-15.5,23.1
	C1376.4,986.9,1378.7,992.4,1386,992.4z"/>
<path class="st0" d="M1414.3,965.9c3.2-3.9,8.9-10.4,14.4-10.4c1.4-0.2,2.7,0.9,2.8,2.3c0,0.2,0,0.4,0,0.5c-0.1,1.4-0.4,2.7-0.9,4
	l-4.3,12.5h0.2c4-5.7,16.2-19.3,24.3-19.3c2.6,0,3.3,1.6,3.3,3.4c-0.1,1.4-0.3,2.7-0.8,4l-6.6,18.2c-0.6,1.4-1.1,2.8-1.2,4.3
	c0,1,0.3,1.7,1.5,1.7c2.2,0,5.9-3.9,7.1-5.8l1.4,1.1l-3,3.6c-2.9,3.6-7,7.2-11.5,7.2c-2.1,0-3.1-1.2-3.1-2.7
	c0.1-1.8,0.5-3.5,1.2-5.1l6.4-17.6c0.5-1.3,0.9-2.7,1.1-4.1c-0.1-0.9-0.9-1.6-1.8-1.6c0,0-0.1,0-0.1,0c-4.6,0-9.3,5.5-12.1,8.6
	c-4.6,4.9-8.1,10.6-10.3,16.9l-1.7,4.7c-0.2,0.7-2.1,0.9-3.1,0.9c-1,0-1.9-0.4-2.7-1.1l8.1-24.4c0.5-1.3,0.8-2.7,1-4.1
	c0-0.8-0.3-1.5-1.3-1.5c-1.7,0-3.3,1.3-4.8,2.8l-2.2,2.5L1414.3,965.9z"/>
<path class="st0" d="M1507,955.5c9.6,0,15.9,7.3,15.9,16.8c0,11.7-9.9,22.3-21.8,22.3c-9.9,0-16.3-6.6-16.3-16.6
	C1484.9,966,1495,955.5,1507,955.5z M1501,992.4c10.7,0,15.2-14.5,15.2-23.1c0-5.9-2.2-11.7-9.3-11.7c-11.1,0-15.5,14-15.5,23.1
	C1491.5,986.9,1493.8,992.4,1501,992.4L1501,992.4z"/>
<path class="st0" d="M1556,956.7l-1,3.4h-9l-13.8,50.5l-5,1.5l-0.2-0.5l12.7-51.5h-7.4l0.9-3.4h7.3c2.7-9.2,4.8-16,12.4-22.7
	c2.2-2,5.7-4,8.8-4c1.7,0,3.4,0.7,3.4,2.7c0,1.2-0.8,4-2.3,4s-3.3-1.7-5.2-1.7c-5,0-6.5,5.6-7.7,10.3l-2.9,11.3L1556,956.7z"/>
<path class="st0" d="M1579.5,991.1h1.2c5.2,0.1,6-2.1,6.6-5.5l7.8-42.6c0.1-0.7,0.2-1.4,0.2-2.1c0-1.3-1.3-3.2-5.4-3.2h-1.7l0.4-2.2
	c6.7,0.1,13.4,0.3,20.1,0.3s13.3-0.2,20-0.3l-0.9,11.5h-1.7v-2c0-6-3.3-6.9-12.7-6.9h-10.1l-4.3,23.5h10.8c3.8,0.1,7.1-0.4,8-3.7
	l1.1-4h1.4l-3.4,18.8h-1.3l0.2-3.2c0.3-3.7-2.2-4.5-7.4-4.5h-9.8l-3.2,18.4c-0.2,1-0.4,2.1-0.4,3.1c0,2.2,0.9,4,4.7,4h13
	c9.4,0,10.8-2.8,14.4-11.2h1.9l-3.7,13.9c-3.8,0-18.3-0.2-27.9-0.2c-6,0-12.2,0.1-18.2,0.2L1579.5,991.1z"/>
<path class="st0" d="M1698.4,983.2l-2.6,2.8c-3.2,3.6-7.1,7.3-11.7,7.3c-1.6,0-3.1-0.7-3.1-2.8c0.1-1.3,0.5-2.6,1-3.9l6.7-19.2
	c0.5-1.1,0.8-2.2,0.9-3.4c0.1-1-0.7-1.9-1.8-2c0,0-0.1,0-0.1,0c-4.3,0-11.8,8.4-14.5,11.6c-3.7,4.5-6.5,9.6-8.5,15l-1.6,3.8
	c-0.2,0.7-2.1,1-2.8,1c-1,0-2.7-0.6-2.9-1.2l7.4-22c0.7-2,1.2-4,1.4-6.1c0-1.2-0.4-2.1-1.6-2.1c-4.5,0-9.4,5.8-12.1,8.7
	c-4.6,4.9-8.1,10.6-10.3,16.9l-1.7,4.7c-0.2,0.7-2.1,0.9-3.1,0.9c-1,0-1.9-0.4-2.6-1.1l8.8-26.4c0.2-0.7,0.3-1.4,0.3-2.1
	c0-0.9-0.3-1.7-1.3-1.7c-1.7,0-3.3,1.4-4.8,2.9l-2.2,2.5l-1.2-1.5c3.1-3.9,8.9-10.5,14.4-10.5c1.4-0.1,2.7,1,2.8,2.4
	c0,0.2,0,0.3,0,0.5c-0.1,1.4-0.4,2.7-0.9,4l-4.3,12.5h0.2c4-5.7,16.2-19.3,23.6-19.3c2.6,0,3.7,1.2,3.7,2.7c-0.1,1.5-0.4,3-0.9,4.5
	l-4,12.3h0.2c4.5-5.6,16.9-19.5,24.7-19.5c2.6,0,3.3,1.6,3.3,3.4c-0.1,1.4-0.3,2.7-0.8,4l-6.6,19.3c-0.5,1.3-0.9,2.6-1.2,3.9
	c0,0.7,0.8,1,1.3,1c1.5,0,6-3.9,7.2-5.2L1698.4,983.2z"/>
<path class="st0" d="M1705.7,966.2c2.4-3.6,8.4-10.7,13.1-10.7c2,0,2.6,0.8,2.6,2.1c-0.2,1.6-0.6,3.1-1.2,4.6l-6.8,21
	c-0.4,1.1-0.7,2.3-0.8,3.5c0,0.8,0.2,1.2,1.1,1.2c1.2,0,5.5-4.5,6.3-5.4l1.3,1.1c-2.6,3.5-8.4,10.9-13.2,10.9
	c-2.4,0-3.1-1.4-3.1-3.3c0.1-1.4,0.4-2.7,0.9-4l7.1-21c0.4-1,0.6-2,0.7-3c0-0.5-0.3-1-0.8-1c-0.1,0-0.1,0-0.2,0
	c-1.7,0-4.9,4-5.9,5.3L1705.7,966.2z M1724.4,940.1c0,2.1-1.8,3.8-3.9,3.7s-3.8-1.8-3.7-3.9c0-2.1,1.7-3.7,3.8-3.7
	C1722.7,936.3,1724.3,938,1724.4,940.1z"/>
<path class="st0" d="M1727.1,965.9c3.2-3.9,8.9-10.4,14.4-10.4c1.4-0.2,2.7,0.9,2.8,2.3c0,0.2,0,0.4,0,0.5c-0.1,1.4-0.4,2.7-0.9,4
	l-4.3,12.5h0.2c4-5.7,16.2-19.3,24.3-19.3c2.6,0,3.3,1.6,3.3,3.4c-0.1,1.4-0.3,2.7-0.8,4l-6.6,18.2c-0.6,1.4-1.1,2.8-1.2,4.3
	c0,1,0.3,1.7,1.5,1.7c2.2,0,5.9-3.9,7.1-5.8l1.4,1.1l-3,3.6c-2.9,3.6-7,7.2-11.5,7.2c-2.2,0-3.1-1.2-3.1-2.7
	c0.1-1.8,0.4-3.5,1.2-5.1l6.5-17.6c0.5-1.3,0.9-2.7,1.1-4.1c-0.1-0.9-0.9-1.6-1.8-1.6c0,0-0.1,0-0.1,0c-4.6,0-9.3,5.5-12.1,8.6
	c-4.5,4.9-8,10.6-10.3,16.9l-1.7,4.7c-0.2,0.7-2.1,0.9-3,0.9c-1,0-1.9-0.4-2.7-1.1l8.1-24.4c0.5-1.3,0.8-2.7,1-4.1
	c0-0.8-0.3-1.5-1.3-1.5c-1.7,0-3.3,1.3-4.8,2.8l-2.2,2.5L1727.1,965.9z"/>
<path class="st0" d="M1802.6,983.8c-5.5,6-11.5,10.8-18.8,10.8c-7.6,0-10.2-5.6-10.2-11.2c0-13.2,11.8-27.9,23.8-27.9
	c3.7,0,8.1,1.3,8.1,5.9c0,11.2-15.8,15.1-24.7,16c-0.5,2.1-0.7,4.2-0.7,6.4c0,4.1,2.9,6.4,6.8,6.4c4.8,0,9.7-3.1,14.4-7.7
	L1802.6,983.8z M1798.9,961.7c0.2-1.8-1.1-3.3-2.9-3.5c-0.2,0-0.4,0-0.5,0c-6.4,0-12.9,11.6-14.2,17
	C1788.9,974.7,1798.9,970.7,1798.9,961.7z"/>
<path class="st0" d="M1809.9,965.9c3.1-3.9,8.9-10.4,14.4-10.4c1.4-0.2,2.7,0.9,2.8,2.3c0,0.2,0,0.4,0,0.5c-0.1,1.4-0.4,2.7-0.9,4
	l-4.3,12.5h0.2c4-5.7,16.2-19.3,24.3-19.3c2.6,0,3.3,1.6,3.3,3.4c-0.1,1.4-0.3,2.7-0.8,4l-6.6,18.2c-0.6,1.4-1,2.8-1.2,4.3
	c0,1,0.3,1.7,1.5,1.7c2.2,0,5.9-3.9,7.1-5.8l1.4,1.1l-3,3.6c-2.9,3.6-7,7.2-11.5,7.2c-2.2,0-3.2-1.2-3.2-2.7
	c0.1-1.8,0.5-3.5,1.2-5.1l6.4-17.6c0.5-1.3,0.9-2.7,1.1-4.1c-0.1-0.9-0.9-1.6-1.8-1.6c0,0-0.1,0-0.1,0c-4.6,0-9.3,5.5-12.1,8.6
	c-4.6,4.9-8.1,10.6-10.3,16.9l-1.7,4.7c-0.2,0.7-2.1,0.9-3.1,0.9c-1,0-1.9-0.4-2.6-1.1l8.1-24.4c0.5-1.3,0.8-2.7,1-4.1
	c0-0.8-0.3-1.5-1.3-1.5c-1.7,0-3.3,1.3-4.8,2.8l-2.2,2.5L1809.9,965.9z"/>
<path class="st0" d="M1887.8,982.7c-5.4,6.1-11.8,11.8-20.3,11.8c-6.6,0-10.1-4.8-10.1-11.2c0-11.2,8.5-21,18.3-25
	c2.3-1,6.9-2.8,9.3-2.8c1.8,0,4,1.2,4,3.3c0.2,2.2-1.5,4.1-3.7,4.3c0,0-0.1,0-0.1,0c-2.9,0-4.2-2.7-6.8-2.7
	c-8.3,0-14.4,15.1-14.4,22c0,4.7,3,7.6,7.9,7.6c5.6,0,11.2-5,14.8-8.8L1887.8,982.7z"/>
<path class="st0" d="M1922.1,983.8c-5.5,6-11.5,10.8-18.8,10.8c-7.6,0-10.2-5.6-10.2-11.2c0-13.2,11.8-27.9,23.8-27.9
	c3.7,0,8.1,1.3,8.1,5.9c0,11.2-15.8,15.1-24.7,16c-0.5,2.1-0.7,4.2-0.7,6.4c0,4.1,2.9,6.4,6.8,6.4c4.8,0,9.7-3.1,14.4-7.7
	L1922.1,983.8z M1918.4,961.7c0.2-1.8-1.1-3.3-2.9-3.5c-0.2,0-0.4,0-0.5,0c-6.4,0-12.9,11.6-14.2,17
	C1908.4,974.7,1918.4,970.7,1918.4,961.7z"/>
<path class="st0" d="M1967,947.7c0.5-2.1,0.8-4.3,0.8-6.5c0-2.7-2-3.1-5.8-3.5h-1.6l0.4-2.2c3.3,0.2,6.5,0.2,9.8,0.2
	c4,0,6.4-0.2,12.3-0.2c12.1,0,17.4,3.4,21.2,6.3c5.5,4.2,9.3,10.8,9.3,19.8c0,19.4-15.1,31.6-34,31.6c-3.6,0-7.4-0.1-11-0.1
	c-5.6,0-11.2,0.1-16.8,0.1l0.4-2.2h1.8c3.9-0.2,5.1-1,6-5.8L1967,947.7z M1967.4,985.5c-1,4.9,5.1,5.1,10.7,5.1
	c17.2,0,27.4-13.7,27.4-30.1c0-11.2-7-17.4-11.4-19.5c-3.7-2-7.9-3-12.2-2.8c-3.3,0-4.6,0.2-5.8,0.2L1967.4,985.5z"/>
<path class="st0" d="M2050.8,983.8c-5.5,6-11.5,10.8-18.8,10.8c-7.6,0-10.2-5.6-10.2-11.2c0-13.2,11.8-27.9,23.8-27.9
	c3.7,0,8.1,1.3,8.1,5.9c0,11.2-15.8,15.1-24.7,16c-0.5,2.1-0.7,4.2-0.7,6.4c0,4.1,2.9,6.4,6.8,6.4c4.8,0,9.7-3.1,14.4-7.7
	L2050.8,983.8z M2047.2,961.7c0.2-1.8-1.1-3.3-2.9-3.5c-0.2,0-0.4,0-0.5,0c-6.4,0-12.9,11.6-14.2,17
	C2037.1,974.7,2047.2,970.7,2047.2,961.7z"/>
<path class="st0" d="M2087.5,983.8c-5.5,6-11.5,10.8-18.8,10.8c-7.6,0-10.2-5.6-10.2-11.2c0-13.2,11.8-27.9,23.8-27.9
	c3.7,0,8.1,1.3,8.1,5.9c0,11.2-15.8,15.1-24.6,16c-0.5,2.1-0.7,4.2-0.7,6.4c0,4.1,2.9,6.4,6.8,6.4c4.8,0,9.7-3.1,14.4-7.7
	L2087.5,983.8z M2083.9,961.7c0.2-1.8-1.1-3.3-2.9-3.5c-0.2,0-0.3,0-0.5,0c-6.4,0-12.9,11.6-14.2,17
	C2073.9,974.7,2083.9,970.7,2083.9,961.7L2083.9,961.7z"/>
<path class="st0" d="M2158.1,983.2l-2.6,2.8c-3.2,3.6-7.1,7.3-11.7,7.3c-1.6,0-3.1-0.7-3.1-2.8c0.1-1.3,0.5-2.6,1-3.9l6.7-19.2
	c0.5-1.1,0.8-2.2,0.9-3.4c0.1-1-0.7-1.9-1.8-2c0,0-0.1,0-0.1,0c-4.3,0-11.8,8.4-14.5,11.6c-3.7,4.5-6.5,9.6-8.5,15l-1.6,3.8
	c-0.2,0.7-2.1,1-2.8,1c-1,0-2.6-0.6-2.9-1.2l7.4-22c0.2-0.8,1.4-4,1.4-6.1c0-1.2-0.4-2.1-1.6-2.1c-4.5,0-9.4,5.8-12.1,8.7
	c-4.6,4.9-8.1,10.6-10.3,16.9l-1.7,4.7c-0.2,0.7-2.1,0.9-3.1,0.9c-1,0-1.9-0.4-2.6-1.1l8.8-26.4c0.2-0.7,0.3-1.4,0.3-2.1
	c0-0.9-0.3-1.7-1.3-1.7c-1.7,0-3.3,1.4-4.8,2.9l-2.2,2.5l-1.2-1.5c3.1-3.9,8.9-10.5,14.4-10.5c1.4-0.1,2.7,1,2.8,2.4
	c0,0.2,0,0.3,0,0.5c-0.1,1.4-0.4,2.7-0.9,4l-4.3,12.5h0.2c4-5.7,16.2-19.3,23.6-19.3c2.6,0,3.7,1.2,3.7,2.7c-0.1,1.5-0.4,3-0.9,4.5
	l-4,12.3h0.2c4.5-5.6,16.9-19.5,24.7-19.5c2.6,0,3.3,1.6,3.3,3.4c-0.1,1.4-0.3,2.7-0.8,4l-6.6,19.3c-0.5,1.3-0.9,2.6-1.2,3.9
	c0,0.7,0.7,1,1.3,1c1.5,0,5.9-3.9,7.2-5.2L2158.1,983.2z"/>
<path class="st0" d="M2193.2,983.8c-5.5,6-11.5,10.8-18.8,10.8c-7.6,0-10.2-5.6-10.2-11.2c0-13.2,11.8-27.9,23.8-27.9
	c3.7,0,8.1,1.3,8.1,5.9c0,11.2-15.8,15.1-24.6,16c-0.5,2.1-0.7,4.2-0.7,6.4c0,4.1,2.9,6.4,6.8,6.4c4.8,0,9.7-3.1,14.4-7.7
	L2193.2,983.8z M2189.6,961.7c0.2-1.8-1.1-3.3-2.9-3.5c-0.2,0-0.4,0-0.5,0c-6.4,0-12.9,11.6-14.2,17
	C2179.6,974.7,2189.6,970.7,2189.6,961.7z"/>
<path class="st0" d="M2241.1,983.3c-2.9,4-8.6,11.2-13.9,11.2c-1.4,0-2.5-1.1-2.6-2.5c0,0,0-0.1,0-0.1c0.2-2.5,0.8-4.9,1.6-7.3
	l0.6-1.8h-0.2c-4.6,5.5-10,11.7-17.6,11.7c-5.9,0-8-4.6-8-10s2.4-10.9,5.6-15.6c3.9-5.6,12.3-13.4,19.5-13.4
	c2.2,0.1,4.4,0.7,6.3,1.8l4.1-20.8l-5-2.7l0.4-1.2c2-0.2,4-0.5,6-0.9c2.2-0.5,4.2-1.1,6-1.7l0.8,0.3l-12.8,53.5
	c-0.2,0.9-0.4,1.8-0.4,2.7c-0.1,0.6,0.3,1.3,1,1.4c0.1,0,0.3,0,0.4,0c2.3,0,5.6-4.2,7-5.9L2241.1,983.3z M2213.6,990.1
	c8.4,0,16.6-17.1,16.6-23.8c0-4-1.4-7.4-5.9-7.4c-9.3,0-16.7,15.9-16.7,23.6C2207.6,986.2,2209.1,990,2213.6,990.1L2213.6,990.1z"/>
<path class="st0" d="M2283.6,946.3h6.6l-3.4,10.4h8.9l-1,3.4h-8.8l-7.2,23.9c-0.3,0.8-0.5,1.7-0.5,2.6c0,1,0.4,1.8,1.6,1.8
	c3.2,0,8.1-5,10.3-7.2l1.1,1.4c-3.7,4.1-10.5,11.9-16.5,11.9c-2.4,0-3.6-2.2-3.6-4.3c0.1-1.8,0.5-3.6,1.1-5.3l7.4-24.8h-8.1l1-3.4h8
	L2283.6,946.3z"/>
<path class="st0" d="M2320.8,955.5c9.6,0,15.9,7.3,15.9,16.8c0,11.7-9.9,22.3-21.8,22.3c-9.9,0-16.3-6.6-16.3-16.6
	C2298.6,966,2308.8,955.5,2320.8,955.5z M2314.8,992.4c10.7,0,15.2-14.5,15.2-23.1c0-5.9-2.2-11.7-9.3-11.7
	c-11.1,0-15.5,14-15.5,23.1C2305.2,986.9,2307.5,992.4,2314.8,992.4z"/>
<path class="st0" d="M2377.8,967.2l0.2,0.2c4.5-5.1,11.2-11.9,18.7-11.9c6.6,0,9.3,4.2,9.3,10.5c0,13.2-15.1,28.5-28.2,28.5
	c-5.5,0-9.8-2.8-9.8-8.8c0.1-2.1,0.4-4.1,1-6.1l10.9-43.5l-3.9-2.4l0.3-1.5c1.7-0.2,4-0.6,6.4-1.1c1.5-0.3,3.8-0.8,5.3-1.3l0.7,0.5
	L2377.8,967.2z M2394.4,958.9c-10.2,0-20.4,17.2-20.4,26.5c0,3.4,1.2,7,5.1,7c10.2,0,20.3-18.3,20.3-27.7
	C2399.4,961.5,2398.2,958.9,2394.4,958.9L2394.4,958.9z"/>
<path class="st0" d="M2441.6,983.8c-5.5,6-11.5,10.8-18.8,10.8c-7.6,0-10.2-5.6-10.2-11.2c0-13.2,11.8-27.9,23.8-27.9
	c3.7,0,8.1,1.3,8.1,5.9c0,11.2-15.8,15.1-24.6,16c-0.5,2.1-0.7,4.2-0.7,6.4c0,4.1,2.9,6.4,6.8,6.4c4.8,0,9.7-3.1,14.4-7.7
	L2441.6,983.8z M2438,961.7c0.2-1.8-1.1-3.3-2.9-3.5c-0.2,0-0.3,0-0.5,0c-6.4,0-12.9,11.6-14.2,17C2428,974.7,2438,970.7,2438,961.7
	z"/>
<path class="st0" d="M2486,947.2c0.3-1.7,0.5-3.4,0.6-5.1c0-4.4-2.9-4.4-6.2-4.4h-1.6l0.4-2.2c4.3,0.2,8.7,0.2,13,0.2
	c3.6,0,7.3-0.2,11-0.2l-0.4,2.1h-1.9c-4,0.2-6.1,1.7-7.5,10.3l-4.5,27.7c-0.2,1.1-0.2,2.2-0.2,3.3c0,8.5,7,12.2,13.5,12.2
	c14.5,0,16.2-10.5,18-22.5l4-22.7c0.2-1,0.3-2.1,0.2-3.1c0-3.7-2.4-5.1-7-5.1h-1.2l0.4-2.2c3.3,0.2,6.8,0.2,10.2,0.2
	c3,0,6-0.2,9-0.2l-0.4,2.2h-1.1c-6,0-6.5,8.3-7.2,12.8l-3.6,22c-1.5,8.7-2.6,12.5-6.8,16.5c-3.3,3.2-8.4,5.5-16.1,5.5
	c-9.4,0-19.4-4.1-19.4-15.1c0.1-3.6,0.5-7.2,1.2-10.7L2486,947.2z"/>
<path class="st0" d="M2536.3,965.9c3.1-3.9,8.9-10.4,14.4-10.4c1.4-0.2,2.7,0.9,2.8,2.3c0,0.2,0,0.4,0,0.5c-0.1,1.4-0.4,2.7-0.9,4
	l-4.3,12.5h0.2c4-5.7,16.2-19.3,24.3-19.3c2.6,0,3.3,1.6,3.3,3.4c-0.1,1.4-0.3,2.7-0.8,4l-6.6,18.2c-0.6,1.4-1,2.8-1.2,4.3
	c0,1,0.3,1.7,1.5,1.7c2.2,0,5.9-3.9,7.1-5.8l1.4,1.1l-3,3.6c-2.9,3.6-7,7.2-11.5,7.2c-2.1,0-3.1-1.2-3.1-2.7
	c0.1-1.8,0.5-3.5,1.2-5.1l6.5-17.6c0.5-1.3,0.9-2.7,1.1-4.1c-0.1-0.9-0.9-1.6-1.8-1.6c0,0-0.1,0-0.1,0c-4.6,0-9.4,5.5-12.1,8.6
	c-4.6,4.9-8.1,10.6-10.3,16.9l-1.7,4.7c-0.2,0.7-2.1,0.9-3.1,0.9c-1,0-1.9-0.4-2.6-1.1l8.1-24.4c0.5-1.3,0.8-2.7,1-4.1
	c0-0.8-0.3-1.5-1.3-1.5c-1.7,0-3.3,1.3-4.8,2.8l-2.2,2.5L2536.3,965.9z"/>
<path class="st0" d="M2583.9,966.2c2.4-3.6,8.4-10.7,13.1-10.7c2,0,2.6,0.8,2.6,2.1c-0.2,1.6-0.6,3.1-1.2,4.6l-6.8,21
	c-0.4,1.1-0.7,2.3-0.8,3.5c0,0.8,0.2,1.2,1.1,1.2c1.2,0,5.5-4.5,6.3-5.4l1.3,1.1c-2.6,3.5-8.4,10.9-13.2,10.9
	c-2.4,0-3.1-1.4-3.1-3.3c0.1-1.4,0.4-2.7,0.9-4l7.1-21c0.4-1,0.6-2,0.8-3c0-0.5-0.3-1-0.8-1c-0.1,0-0.1,0-0.2,0
	c-1.8,0-4.9,4-5.9,5.3L2583.9,966.2z M2602.6,940.1c0,2.1-1.8,3.8-3.9,3.7c-2.1,0-3.8-1.8-3.7-3.9c0-2.1,1.7-3.7,3.8-3.7
	C2600.9,936.3,2602.6,938,2602.6,940.1L2602.6,940.1z"/>
<path class="st0" d="M2605.4,964.8c3.6-3.3,8.7-9.3,14-9.3c2,0,2.7,1.2,2.7,3c-0.1,1.6-0.5,3.2-1,4.7l-5.6,19
	c-0.6,1.4-0.9,2.8-1,4.3c0,1.9,1.6,3.1,3.6,3.1c6.9,0,14.8-11.2,17-17c1.1-2.5,1.7-5.1,1.7-7.8c0-1.4-0.2-2.9-0.2-4.3
	c0-2.5,0.9-5,3.7-5c2.3,0,3.1,2.1,3.1,4c0,7.5-7.5,18.8-12.3,24.2c-3.8,4.4-10.8,10.8-16.9,10.8c-3.7,0-6.3-2.1-6.3-6.1
	c0.1-1.7,0.4-3.4,0.9-5l5.1-16.1c0.4-1.2,0.6-2.4,0.7-3.6c0-1.1-0.3-2.1-1.6-2.1c-1.9,0-5,3.1-6.2,4.5L2605.4,964.8z"/>
<path class="st0" d="M2675.7,983.8c-5.5,6-11.5,10.8-18.8,10.8c-7.6,0-10.2-5.6-10.2-11.2c0-13.2,11.8-27.9,23.8-27.9
	c3.7,0,8.1,1.3,8.1,5.9c0,11.2-15.8,15.1-24.6,16c-0.5,2.1-0.7,4.2-0.7,6.4c0,4.1,2.9,6.4,6.8,6.4c4.8,0,9.7-3.1,14.4-7.7
	L2675.7,983.8z M2672,961.7c0.2-1.8-1.1-3.3-2.9-3.5c-0.2,0-0.4,0-0.5,0c-6.4,0-12.9,11.6-14.2,17C2662,974.7,2672,970.7,2672,961.7
	z"/>
<path class="st0" d="M2682.8,966.6c2.1-3.1,8.4-11.1,12.5-11.1c2.1,0,3.4,0.9,3.4,3.1c-0.1,1.5-0.4,2.9-0.8,4.3l-3.1,11.3h0.2
	c2.2-4.2,10-18.8,15.2-18.8c1.7,0,2.6,1,2.6,2.8s-0.9,6.1-3.5,6.1c-1,0-2.1-0.3-3.1-0.3c-5.7,0-11.6,16-14.3,24.5l-1.5,5.3
	c-0.2,0.6-1.5,0.7-3,0.7c-1.1,0-2.6-0.8-2.6-1.5c0-0.3,0.1-0.5,0.2-0.8l6.5-22.8c0.5-1.6,0.9-3.2,1-4.9c0-0.9-0.5-2.2-1.6-2.2
	c-2.2,0-5.6,3.9-6.9,5.5L2682.8,966.6z"/>
<path class="st0" d="M2715.8,982.9c0.8,4.7,6.2,6.6,10.5,6.6c2.3,0,7.4-0.6,7.4-3.7c0-5.7-12.1-9.3-14.5-14.6
	c-0.5-1.2-0.8-2.5-0.7-3.8c0-4.3,5.8-8,9-10.1c1.8-1.3,3.9-1.9,6.1-1.8c3.4,0,7.2,0.9,7.2,5c0,1-0.8,3.7-1.7,3.7h-1
	c-0.7,0-0.8-0.6-1.2-1.2c-0.7-1.6-4.1-3-6.8-3s-6.2,1.5-6.2,4.7c0,6.8,14.6,8.6,14.6,17.2c0,3.2-3.2,6.8-5.4,8.8
	c-2.6,2.6-6.2,4-9.8,3.8c-4,0-10.5-1.2-10.5-6.5c0-1.9,1-3.5,1.9-5.1L2715.8,982.9z"/>
<path class="st0" d="M2747.9,966.2c2.4-3.6,8.4-10.7,13.1-10.7c2,0,2.6,0.8,2.6,2.1c-0.2,1.6-0.6,3.1-1.1,4.6l-6.8,21
	c-0.4,1.1-0.7,2.3-0.8,3.5c0,0.8,0.2,1.2,1.1,1.2c1.2,0,5.5-4.5,6.3-5.4l1.3,1.1c-2.6,3.5-8.4,10.9-13.1,10.9
	c-2.4,0-3.1-1.4-3.1-3.3c0.1-1.4,0.4-2.7,0.9-4l7.1-21c0.4-1,0.6-2,0.8-3c0-0.5-0.3-1-0.8-1c-0.1,0-0.1,0-0.2,0
	c-1.8,0-4.9,4-5.9,5.3L2747.9,966.2z M2766.6,940.1c0,2.1-1.8,3.8-3.9,3.7c-2.1,0-3.8-1.8-3.7-3.9c0-2.1,1.7-3.7,3.8-3.7
	C2764.9,936.3,2766.6,938,2766.6,940.1z"/>
<path class="st0" d="M2783.4,946.3h6.6l-3.4,10.4h8.9l-1,3.4h-8.8l-7.2,23.9c-0.3,0.8-0.5,1.7-0.5,2.6c0,1,0.4,1.8,1.7,1.8
	c3.2,0,8.1-5,10.2-7.2l1.1,1.4c-3.7,4.1-10.5,11.9-16.5,11.9c-2.4,0-3.6-2.2-3.6-4.3c0.1-1.8,0.5-3.6,1.1-5.3l7.4-24.8h-8.1l1-3.4h8
	L2783.4,946.3z"/>
<path class="st0" d="M2798.7,969.1l-2-1.2c0-5.5,2.2-12.5,8.9-12.5c11.7,0,11.5,25.8,13.1,33.7c3.5-6.2,9-14.8,9-22
	c0-3.1-1-4.5-1-6.8c0-2.5,1.3-5,3.9-5c2.4,0,3.2,2.2,3.2,4.4c0,9.1-13.3,31.8-19.2,39.3c-3.5,4.6-9.2,13-15.8,13
	c-1.8,0-3.3-1.5-3.4-3.3c0-1.8,1-3.4,3-3.4c1.1,0,2.2,0.6,3.5,0.6c1.8,0,4.3-0.8,7-4l4.5-5.2l-0.2-4.3l-0.8-6.9
	c-1.3-9.5-4.3-24.1-9.7-24.1c-2.1-0.1-3.8,1.4-4,3.4c0,0.1,0,0.2,0,0.4c0,1.1,0.2,2.1,0.6,3.1L2798.7,969.1z"/>
<path class="st0" d="M2833.3,1008.3c10.8-17.6,18.3-31.6,18.3-52.5c-0.1-6.9-1-13.8-2.8-20.5l2.1-1c3.7,7.4,6.2,15.5,6.2,23.7
	c0,20.3-10,35.7-22,51.2L2833.3,1008.3z"/>
<path class="st0" d="M1366.6,833.5h1.5c0.9,0,1.9-0.1,2.8-0.2c0.9-0.1,1.8-0.4,2.6-0.8c0.8-0.4,1.4-1.1,1.8-1.8
	c0.5-1,0.8-2.2,0.7-3.3v-56c0-1.1-0.2-2.2-0.7-3.3c-0.4-0.8-1.1-1.4-1.8-1.9c-0.8-0.4-1.7-0.7-2.6-0.8c-0.9-0.1-1.9-0.2-2.8-0.2
	h-1.5v-3.2c2.4,0,5,0.1,7.9,0.2c2.9,0.1,5.8,0.2,8.8,0.2c3.1,0,6.1-0.1,9-0.2c2.9-0.2,5.6-0.2,8.1-0.2c3.9-0.1,7.7,0.4,11.4,1.3
	c2.7,0.7,5.3,1.9,7.6,3.6c1.9,1.4,3.3,3.2,4.3,5.3c0.9,2.1,1.4,4.3,1.3,6.6c0.1,2.4-0.5,4.9-1.7,7c-1.1,2-2.7,3.7-4.5,5.1
	c-1.9,1.4-4,2.5-6.2,3.3c-2.3,0.8-4.6,1.4-7,1.9v0.2c2.9-0.1,5.8,0.3,8.7,1.1c2.7,0.7,5.3,1.9,7.6,3.6c2.2,1.6,4.1,3.6,5.5,6
	c1.4,2.6,2.1,5.5,2.1,8.5c0,2.9-0.7,5.7-2,8.2c-1.3,2.6-3.2,4.9-5.4,6.7c-2.4,2-5.1,3.5-8,4.5c-3.2,1.1-6.5,1.7-9.8,1.7
	c-2.7,0-5.7-0.1-8.9-0.2c-3.2-0.1-6.5-0.2-9.8-0.2c-1.6,0-3.3,0-5.1,0s-3.4,0.1-5.1,0.2s-3.3,0.1-4.8,0.2s-2.8,0-4,0L1366.6,833.5z
	 M1389.7,794.9h5.2c2.1,0,4.2-0.2,6.3-0.8c1.8-0.5,3.5-1.3,5-2.4c1.5-1.1,2.6-2.6,3.3-4.3c0.8-2,1.2-4.2,1.2-6.4
	c0.1-2.6-0.3-5.1-1.3-7.5c-0.7-1.8-1.9-3.4-3.3-4.6c-1.4-1.1-3-1.9-4.7-2.2c-1.8-0.4-3.5-0.6-5.3-0.6h-6.4L1389.7,794.9z
	 M1389.7,823.9c0,1.5,0.1,3,0.3,4.5c0.2,1,0.6,2,1.4,2.8c0.8,0.7,1.8,1.2,2.9,1.4c1.7,0.3,3.3,0.4,5,0.4c4.3,0,8.4-1.7,11.3-4.9
	c1.4-1.6,2.6-3.4,3.3-5.4c0.8-2.1,1.2-4.4,1.2-6.6c0.1-2.7-0.4-5.3-1.4-7.8c-0.9-2.1-2.2-3.9-3.9-5.4c-1.7-1.5-3.8-2.5-5.9-3.2
	c-2.4-0.7-4.9-1-7.4-1h-6.8L1389.7,823.9z"/>
<path class="st0" d="M1437.9,833.5h1.5c0.9,0,1.9-0.1,2.8-0.2c0.9-0.1,1.8-0.4,2.6-0.8c0.8-0.4,1.4-1.1,1.8-1.8
	c0.5-1,0.7-2.2,0.7-3.3v-56c0.1-1.1-0.2-2.2-0.7-3.3c-0.4-0.8-1.1-1.4-1.8-1.9c-0.8-0.4-1.7-0.7-2.6-0.8c-0.9-0.1-1.9-0.2-2.8-0.2
	h-1.5v-3.2c1.6,0,3.5,0,5.7,0s4.4,0.1,6.7,0.2s4.7,0.1,7.2,0.2s4.8,0,7,0s4.5,0,7,0s4.9-0.1,7.3-0.2s4.7-0.1,7-0.2s4.2,0,6.1,0
	c-0.1,1.1-0.1,2.4-0.1,3.8v4.4c0,1.4,0,2.8,0.1,4.3s0.2,2.7,0.2,3.8l-3.2,0.9c-0.1-1.6-0.4-3.3-0.7-4.9c-0.3-1.5-0.9-2.8-1.8-4
	c-1-1.2-2.3-2.1-3.8-2.7c-2.1-0.7-4.4-1.1-6.7-1H1461v28h12.7c1.3,0,2.7-0.2,3.9-0.7c1-0.4,1.8-1,2.5-1.9c0.6-0.9,1.1-1.9,1.4-3
	c0.3-1.3,0.6-2.6,0.7-3.9h3.2c-0.2,4.2-0.3,8.4-0.3,12.5c0,4.1,0.1,8.2,0.3,12.2l-3.2,0.6c-0.1-1.6-0.3-3-0.5-4.3
	c-0.2-1.2-0.5-2.3-1.1-3.4c-0.5-0.9-1.4-1.7-2.3-2.1c-1.4-0.6-2.8-0.8-4.3-0.8H1461v24.9c-0.1,1.4,0.3,2.8,1.1,4
	c0.7,1,1.7,1.7,2.9,2.1c1.3,0.5,2.8,0.7,4.2,0.7c1.6,0.1,3.2,0.1,4.9,0.1c3.2,0,6-0.1,8.3-0.3c2.1-0.2,4.2-0.7,6.1-1.6
	c1.8-0.9,3.2-2.3,4.3-3.9c1.4-2.2,2.4-4.7,2.9-7.2l3,0.7c-0.7,2.9-1.4,5.7-2,8.5c-0.6,2.8-1.2,5.6-1.7,8.5c-1.7,0-3.7,0-6,0
	c-2.3,0-4.7-0.1-7.3-0.2c-2.6-0.1-5.2-0.1-7.8-0.2s-5.2,0-7.6,0s-5,0-7.6,0s-5.3,0.1-7.9,0.2s-5,0.1-7.3,0.2s-4.2,0-5.7,0
	L1437.9,833.5z"/>
<path class="st0" d="M1572,815.7l0.2-0.2v-40.1c0.1-1.8-0.3-3.6-1-5.3c-0.6-1.2-1.4-2.2-2.4-3c-0.9-0.7-1.9-1.2-3-1.4
	c-0.9-0.2-1.8-0.3-2.8-0.3h-2.3v-3.2c2.5,0,5,0.1,7.5,0.2s5,0.2,7.5,0.2c2.2,0,4.4-0.1,6.6-0.2s4.4-0.2,6.6-0.2v3.2h-1.6
	c-1.1,0-2.3,0.1-3.4,0.3c-1.2,0.2-2.2,0.8-3,1.7c-1,1.2-1.8,2.6-2.2,4.1c-0.7,2.4-0.9,5-0.9,7.5v48.6c0,1.9,0,3.7,0.1,5.5
	c0.1,1.8,0.2,3.5,0.5,5.2h-4.1l-55-61.3v44c0,2,0.1,3.9,0.4,5.9c0.2,1.4,0.7,2.7,1.6,3.8c0.8,1,1.8,1.8,3,2.2c1.6,0.5,3.3,0.7,5,0.6
	h1.8v3.2c-2.3,0-4.6-0.1-6.9-0.2s-4.6-0.2-6.9-0.2c-2.4,0-4.8,0.1-7.3,0.2s-4.8,0.2-7.3,0.2v-3.2h1.5c3.7,0,6.2-1.2,7.6-3.6
	c1.4-2.4,2-5.7,2-10v-45c0-1.4-0.3-2.7-0.8-4c-0.5-1.1-1.3-2.1-2.2-3c-0.9-0.9-1.9-1.5-3.1-1.9c-1.1-0.4-2.4-0.6-3.6-0.6h-1.4v-3.2
	c2.1,0,4.1,0.1,6.2,0.2s4.1,0.2,6.1,0.2c1.6,0,3.2-0.1,4.8-0.2s3.1-0.2,4.8-0.2L1572,815.7z"/>
<path class="st0" d="M1662.9,783c-1.6-6.6-4.6-11.2-8.9-13.8c-4.3-2.6-9.6-4-15.9-4c-4.3-0.1-8.6,0.8-12.5,2.5
	c-3.5,1.6-6.5,3.9-8.9,6.8c-2.4,3-4.3,6.4-5.3,10.2c-1.2,4.1-1.8,8.3-1.8,12.6c0,4.4,0.6,8.9,1.7,13.2c1,4.2,2.8,8.1,5.1,11.7
	c2.3,3.4,5.3,6.3,8.9,8.4c4,2.2,8.6,3.3,13.2,3.2c2.5,0.1,4.9-0.1,7.3-0.5c2.3-0.4,3.8-0.9,4.5-1.5v-17.4c0-0.9-0.2-1.9-0.7-2.7
	c-0.5-0.7-1.1-1.3-1.9-1.7c-0.8-0.4-1.7-0.7-2.6-0.8c-1-0.1-2-0.2-2.9-0.2h-1.4v-3.2c2.7,0.1,5.4,0.2,8,0.3s5.3,0.1,8,0.1
	c2.4,0,4.8,0,7.2-0.1s4.7-0.2,7.2-0.3v3.2h-1.4c-3.8,0-5.8,1.8-5.8,5.5v16.2l2.5,1.4v1.9c-4.8,1.3-9.6,2.4-14.3,3.3
	c-5.1,0.9-10.3,1.3-15.5,1.3c-5.7,0.1-11.3-0.8-16.7-2.6c-4.9-1.6-9.5-4.3-13.3-7.8c-3.8-3.5-6.8-7.8-8.8-12.6
	c-2.2-5.4-3.3-11.2-3.2-17.1c-0.1-5.7,1.1-11.3,3.6-16.3c2.3-4.6,5.6-8.6,9.6-11.8c4.1-3.2,8.7-5.6,13.7-7.2
	c5.1-1.6,10.5-2.4,15.8-2.4c2.9,0,5.8,0.2,8.7,0.6c2.4,0.4,4.7,0.8,6.7,1.3s4.1,0.9,6,1.3c2,0.4,4.1,0.6,6.1,0.7v3.6
	c0,1.4,0,3,0.2,4.7s0.2,3.4,0.4,5.1c0.1,1.7,0.4,3.3,0.7,4.9L1662.9,783z"/>
<path class="st0" d="M1692.2,821.5c-0.6,1.9-1.1,3.5-1.6,4.8c-0.5,1.1-0.7,2.3-0.8,3.5c0,0.7,0.2,1.4,0.8,1.9
	c0.5,0.5,1.2,0.9,1.9,1.2c0.8,0.3,1.7,0.5,2.6,0.5c1,0.1,1.9,0.1,2.7,0.1h1.2v3.2c-2.1-0.1-4.3-0.2-6.5-0.3s-4.3-0.1-6.5-0.1
	c-1.9,0-3.9,0-5.8,0.1s-3.8,0.2-5.8,0.3v-3.2h0.7c2,0,4-0.6,5.6-1.8c1.8-1.3,3.1-3.1,3.7-5.2l17.1-49.1c0.7-2,1.5-4.2,2.2-6.6
	c0.7-2.2,1.3-4.4,1.7-6.6c1.8-0.6,3.7-1.4,5.4-2.2c1.5-0.7,2.9-1.5,4.3-2.3c0.3-0.1,0.6-0.2,0.8-0.2c0.3,0,0.6,0.1,0.8,0.3
	c0.2,0.4,0.3,0.9,0.5,1.3s0.3,0.9,0.5,1.3l19.7,55.9c0.6,1.9,1.3,3.7,1.9,5.6s1.3,3.7,2,5.3c1.2,2.9,3.5,4.3,7,4.3h0.6v3.2
	c-2.4-0.1-4.8-0.2-7.3-0.3s-4.9-0.1-7.5-0.1s-5.3,0-8,0.1s-5.3,0.2-8.1,0.3v-3.2h1.2c0.6,0,1.3,0,2.1-0.1c0.7-0.1,1.4-0.2,2.1-0.4
	c0.6-0.2,1.2-0.5,1.7-1c0.5-0.4,0.7-1,0.7-1.6c-0.1-1.1-0.3-2.1-0.6-3.1c-0.4-1.3-0.9-2.9-1.5-4.6l-4.2-12.4h-24.3L1692.2,821.5z
	 M1707.8,774.1h-0.2l-9.9,30.2h20L1707.8,774.1z"/>
<path class="st0" d="M1776.2,826.3c0,2.1,0.6,3.6,1.9,4.4c1.4,0.8,2.9,1.4,4.5,1.5c2.2,0.1,4.5,0.2,6.8,0.2c2.4,0,4.9-0.1,7.3-0.4
	c4.1-0.5,7.7-2.6,10.3-5.8c0.8-1.2,1.5-2.5,2-3.8c0.5-1.3,0.9-2.6,1.3-3.8h3.1c-0.6,3.1-1.2,6.1-1.9,9.1c-0.7,3-1.4,6-2,9.1
	c-4.7,0-9.4-0.1-14.1-0.2s-9.4-0.2-14.1-0.2c-4.7,0-9.4,0.1-14.1,0.2s-9.4,0.2-14.1,0.2v-3.2h1.5c0.9,0,1.9-0.1,2.8-0.2
	c0.9-0.1,1.8-0.4,2.6-0.9c0.8-0.5,1.5-1.3,1.9-2.2c0.5-1.2,0.8-2.6,0.7-3.9v-54.9c0-1.1-0.2-2.2-0.7-3.3c-0.4-0.8-1.1-1.4-1.9-1.9
	c-0.8-0.4-1.7-0.7-2.6-0.8c-0.9-0.1-1.9-0.2-2.8-0.2h-1.5v-3.2c2.8,0,5.7,0.1,8.4,0.2c2.8,0.1,5.6,0.2,8.4,0.2
	c2.7,0,5.4-0.1,8.1-0.2c2.7-0.2,5.4-0.2,8.1-0.2v3.2h-2.7c-1,0-1.9,0-2.8,0.1c-0.8,0-1.6,0.3-2.3,0.6c-0.7,0.4-1.2,1-1.5,1.7
	c-0.4,1-0.6,2.2-0.6,3.3L1776.2,826.3z"/>
<path class="st0" d="M1827.2,773.2c0.1-1.5-0.2-3.1-0.7-4.5c-0.4-0.9-1-1.7-1.8-2.3c-0.8-0.5-1.7-0.8-2.6-0.8
	c-1-0.1-2.1-0.2-3.1-0.2h-1.3v-3.2c2.3,0,4.8,0.1,7.6,0.2c2.8,0.1,5.9,0.2,9.3,0.2c3.2,0,6.2-0.1,8.8-0.2c2.7-0.2,5.1-0.2,7.2-0.2
	v3.2h-1.3c-1.1,0-2.1,0.1-3.2,0.2c-1,0.1-1.9,0.4-2.7,0.8c-0.9,0.6-1.5,1.4-1.9,2.3c-0.6,1.4-0.8,3-0.7,4.5V810c0,3.1,0.3,6.3,1,9.3
	c0.6,2.6,1.8,5.1,3.4,7.3c1.7,2.1,3.8,3.7,6.2,4.7c3.1,1.2,6.3,1.8,9.6,1.7c7.1,0,12.2-2.1,15.4-6.3c3.2-4.2,4.9-9.9,4.9-17.1v-36.4
	c0.1-1.5-0.2-3.1-0.7-4.5c-0.4-0.9-1-1.7-1.8-2.3c-0.7-0.5-1.6-0.8-2.5-0.8c-0.9-0.1-1.8-0.2-2.7-0.2h-2.1v-3.2
	c2.1,0,4.3,0.1,6.5,0.2c2.2,0.1,4.3,0.2,6.5,0.2s4.1-0.1,6.2-0.2s4.1-0.2,6.2-0.2v3.2h-2.2c-0.8,0-1.5,0.1-2.3,0.2
	c-0.8,0.1-1.6,0.4-2.2,0.8c-0.8,0.6-1.3,1.4-1.7,2.3c-0.5,1.4-0.7,3-0.6,4.5v34.1c0.1,5.1-0.6,10.2-2.2,15.1
	c-1.3,3.6-3.4,6.9-6.2,9.6c-2.6,2.4-5.7,4.1-9.1,5c-3.7,1-7.4,1.5-11.2,1.4c-4.6,0.1-9.2-0.4-13.6-1.4c-3.6-0.8-7-2.4-10-4.7
	c-2.8-2.2-4.9-5-6.2-8.3c-1.5-3.9-2.2-8.1-2.1-12.2L1827.2,773.2z"/>
<path class="st0" d="M1910.9,773.5c0.1-1.5-0.2-3.1-0.7-4.5c-0.4-1-1-1.8-1.8-2.5c-0.7-0.5-1.6-0.9-2.5-1c-0.9-0.1-1.7-0.2-2.6-0.2
	h-1.9v-3.2c1.7,0,4.1,0.1,7.1,0.2c3,0.1,6.2,0.2,9.5,0.2s6.2-0.1,8.9-0.2s5.5-0.2,8.3-0.2c3.2,0,6.4,0.3,9.6,0.8
	c2.9,0.5,5.6,1.4,8.1,2.9c2.4,1.4,4.3,3.4,5.6,5.8c1.5,2.9,2.2,6.1,2.1,9.3c0.1,4.3-1.4,8.5-4.3,11.8c-1.4,1.6-2.9,2.9-4.7,4.1
	c-1.9,1.2-3.8,2.2-5.9,3l18.2,27.4c0.6,1,1.3,2,2.1,2.8c0.7,0.7,1.4,1.3,2.2,1.8c0.8,0.5,1.7,0.9,2.6,1.1c1.1,0.3,2.2,0.5,3.4,0.6
	v3.2c-1.8,0-3.5-0.1-5.2-0.2s-3.4-0.2-5.2-0.2s-3.3,0.1-5,0.2s-3.4,0.2-5,0.2c-4.1-5.4-8-11-11.6-16.7c-3.6-5.7-7.1-11.7-10.6-17.9
	h-7.1V825c-0.1,1.6,0.2,3.3,0.7,4.8c0.4,1,1,1.9,1.9,2.6c0.8,0.6,1.8,0.9,2.8,1c1.1,0.1,2.2,0.2,3.4,0.2h1.9v3.2
	c-3.1,0-6.1-0.1-9.2-0.2s-6.1-0.2-9.2-0.2c-2.6,0-5.1,0.1-7.6,0.2s-5.2,0.2-7.8,0.2v-3.2h1.9c1.9,0,3.7-0.4,5.3-1.4
	c1.5-0.9,2.4-2.6,2.3-4.4L1910.9,773.5z M1924.6,798.3h5.2c2.4,0,4.7-0.2,7.1-0.8c1.9-0.5,3.7-1.4,5.2-2.8c1.5-1.4,2.6-3.2,3.2-5.1
	c0.8-2.6,1.1-5.2,1.1-7.9c0-4.8-1.4-8.6-4.2-11.4c-2.8-2.8-6.6-4.2-11.4-4.2c-1.2,0-2.5,0-3.7,0.2c-0.8,0.1-1.6,0.2-2.4,0.3
	L1924.6,798.3z"/>
<path class="st0" d="M1987.6,773.2c0.1-1.5-0.2-3.1-0.7-4.5c-0.4-0.9-1-1.7-1.8-2.3c-0.8-0.5-1.7-0.8-2.6-0.8
	c-1-0.1-2.1-0.2-3.1-0.2h-1.3v-3.2c2.3,0,4.8,0.1,7.6,0.2c2.8,0.1,5.9,0.2,9.3,0.2c3.2,0,6.1-0.1,8.8-0.2c2.7-0.2,5.1-0.2,7.2-0.2
	v3.2h-1.3c-1.1,0-2.1,0.1-3.1,0.2c-1,0.1-1.9,0.4-2.7,0.8c-0.9,0.6-1.5,1.4-1.9,2.3c-0.6,1.4-0.8,3-0.8,4.5V810c0,3.1,0.3,6.3,1,9.3
	c0.6,2.6,1.8,5.1,3.4,7.3c1.7,2.1,3.8,3.7,6.3,4.7c3.1,1.2,6.3,1.8,9.6,1.7c7.1,0,12.2-2.1,15.4-6.3c3.2-4.2,4.9-9.9,4.9-17.1v-36.4
	c0.1-1.5-0.2-3.1-0.7-4.5c-0.4-0.9-1-1.7-1.8-2.3c-0.7-0.5-1.6-0.8-2.4-0.8c-0.9-0.1-1.8-0.2-2.7-0.2h-2.1v-3.2
	c2.1,0,4.3,0.1,6.5,0.2s4.3,0.2,6.5,0.2s4.1-0.1,6.2-0.2s4.1-0.2,6.2-0.2v3.2h-2.2c-0.8,0-1.5,0.1-2.3,0.2c-0.8,0.1-1.6,0.4-2.2,0.8
	c-0.8,0.6-1.3,1.4-1.7,2.3c-0.5,1.4-0.7,3-0.6,4.5v34.1c0.1,5.1-0.6,10.2-2.2,15.1c-1.3,3.6-3.4,6.9-6.1,9.6c-2.6,2.4-5.7,4.1-9.2,5
	c-3.7,1-7.4,1.5-11.2,1.4c-4.6,0.1-9.2-0.4-13.6-1.4c-3.6-0.8-7.1-2.4-10.1-4.7c-2.8-2.2-4.9-5-6.2-8.3c-1.5-3.9-2.2-8.1-2.1-12.2
	L1987.6,773.2z"/>
<path class="st0" d="M2159,784.2c-0.8-2.5-1.7-4.9-2.8-7.3c-1-2.3-2.5-4.3-4.3-6c-2-1.8-4.3-3.2-6.8-4.1c-3.2-1.1-6.6-1.6-10.1-1.5
	c-4-0.1-8,0.8-11.6,2.5c-3.3,1.6-6.1,3.9-8.3,6.8c-2.3,3.1-4.1,6.5-5.1,10.3c-1.2,4.2-1.8,8.6-1.7,13c0,4.4,0.6,8.9,1.7,13.2
	c1.1,4.1,2.9,8,5.3,11.5c2.4,3.4,5.5,6.2,9.1,8.2c4,2.2,8.5,3.2,13.1,3.1c5.8,0,10.5-1.6,14.2-4.9c3.8-3.5,6.4-8,7.6-12.9l3,0.4
	c-0.7,2.9-1.2,5.7-1.6,8.7c-0.4,2.8-0.7,5.7-1,8.7c-7.7,3.2-16.1,4.9-24.5,4.8c-5.7,0.1-11.3-0.8-16.7-2.5
	c-4.9-1.5-9.4-4.1-13.3-7.4c-3.8-3.4-6.8-7.7-8.8-12.5c-2.2-5.6-3.3-11.6-3.1-17.6c-0.1-5.5,1.1-11,3.4-16c2.1-4.6,5.2-8.6,9-11.9
	c3.9-3.3,8.4-5.8,13.2-7.4c5.1-1.7,10.4-2.6,15.8-2.6c2.7,0,5.4,0.2,8,0.6c2.2,0.4,4.3,0.9,6.2,1.5s3.8,1.2,5.8,1.8
	c2.2,0.7,4.4,1.1,6.6,1.4c-0.1,3,0,6,0.1,8.9c0.2,3,0.4,5.9,0.7,8.9L2159,784.2z"/>
<path class="st0" d="M2185,821.5c-0.6,1.9-1.1,3.5-1.6,4.8c-0.5,1.1-0.7,2.3-0.8,3.5c0,0.7,0.2,1.4,0.8,1.9c0.5,0.5,1.2,0.9,1.9,1.2
	c0.8,0.3,1.7,0.5,2.6,0.5c1,0.1,1.9,0.1,2.7,0.1h1.2v3.2c-2.1-0.1-4.3-0.2-6.5-0.3s-4.3-0.1-6.5-0.1c-1.9,0-3.9,0-5.8,0.1
	s-3.8,0.2-5.8,0.3v-3.2h0.6c2,0,4-0.6,5.6-1.8c1.8-1.3,3.1-3.1,3.7-5.2l17.1-49.1c0.7-2,1.4-4.2,2.2-6.6c0.7-2.2,1.3-4.4,1.7-6.6
	c1.8-0.6,3.7-1.4,5.4-2.2c1.5-0.7,2.9-1.5,4.3-2.3c0.3-0.1,0.6-0.2,0.9-0.2c0.3,0,0.6,0.1,0.7,0.3c0.1,0.4,0.3,0.9,0.5,1.3
	s0.3,0.9,0.5,1.3l19.7,55.9c0.6,1.9,1.3,3.7,1.9,5.6s1.3,3.7,2,5.3c1.2,2.9,3.6,4.3,7.1,4.3h0.6v3.2c-2.4-0.1-4.8-0.2-7.3-0.3
	s-4.9-0.1-7.5-0.1s-5.3,0-8,0.1s-5.4,0.2-8.1,0.3v-3.2h1.2c0.6,0,1.3,0,2.1-0.1c0.7-0.1,1.4-0.2,2.1-0.4c0.6-0.2,1.2-0.6,1.7-1
	c0.4-0.4,0.7-1,0.7-1.6c-0.1-1.1-0.3-2.1-0.6-3.1c-0.4-1.3-0.9-2.9-1.5-4.6l-4.2-12.4h-24.3L2185,821.5z M2200.6,774.1h-0.2
	l-9.9,30.2h20L2200.6,774.1z"/>
<path class="st0" d="M2297.7,818l25.3-55.9c1.6,0,3.4,0.1,5.2,0.2s3.7,0.2,5.7,0.2s3.7-0.1,5.7-0.2s3.8-0.2,5.7-0.2v3.2h-1
	c-0.8,0-1.7,0-2.9,0.1c-1.1,0.1-2.2,0.3-3.2,0.6c-1,0.3-1.9,0.8-2.6,1.5c-0.8,0.7-1.2,1.7-1.2,2.7c-0.1,1.4,0,2.9,0.1,4.3
	c0.1,1.5,0.3,2.8,0.4,4l4.1,49c0,1.1,0.3,2.2,0.8,3.2c0.4,0.7,1,1.3,1.8,1.8c0.9,0.5,1.8,0.7,2.8,0.8c1.1,0.1,2.5,0.2,4.2,0.3v3.2
	c-2.5-0.1-5-0.2-7.6-0.3s-5.2-0.1-7.8-0.1c-3,0-5.9,0-8.8,0.1c-2.9,0.1-5.8,0.2-8.8,0.3v-3.2c1.4-0.1,2.6-0.2,3.7-0.3
	c1-0.1,2-0.3,2.9-0.7c0.8-0.3,1.4-0.7,1.9-1.4c0.5-0.8,0.7-1.8,0.6-2.7v-2c0-0.7,0-1.8-0.1-3.2l-3-45.1h-0.2l-27.3,60.2h-2.6
	l-25.9-59h-0.2l-3.6,46.9c-0.1,1.4,0.1,2.7,0.6,4c0.3,0.9,0.9,1.6,1.7,2.1c0.9,0.5,1.9,0.8,2.9,0.9c1.1,0.1,2.5,0.2,4,0.3h1.3v3.2
	c-2.4-0.1-4.9-0.2-7.3-0.3s-4.9-0.1-7.3-0.1c-2.1,0-4.2,0-6.3,0.1c-2.1,0.1-4.2,0.2-6.3,0.3v-3.2h1.5c1.7,0,3.4-0.3,5-0.9
	c1.1-0.4,2.1-1.2,2.7-2.2c0.7-1.1,1.1-2.3,1.3-3.6c0.2-1.4,0.5-3.1,0.7-5l3.2-29.7c0.4-3.9,0.8-7.4,1-10.7s0.3-6,0.3-8.1
	c0-1.3-0.2-2.6-0.8-3.8c-0.5-1-1.2-1.8-2.1-2.5c-0.9-0.6-1.9-1.1-3-1.3c-1.1-0.3-2.3-0.4-3.4-0.4h-1.5v-3.2c2.2,0,4.4,0.1,6.5,0.2
	s4.3,0.2,6.5,0.2c1.6,0,3.2-0.1,4.8-0.2c1.6-0.2,3.2-0.2,4.8-0.2L2297.7,818z"/>
<path class="st0" d="M2374.7,824.7c-0.1,1.7,0.2,3.4,0.8,5c0.4,1.1,1.2,2,2.2,2.7c1,0.6,2.1,0.9,3.2,1c1.2,0.1,2.6,0.2,3.9,0.2h1.7
	v3.2c-2.7,0-5.4-0.1-8.1-0.2c-2.7-0.1-5.4-0.2-8.1-0.2c-3,0-5.9,0.1-8.8,0.2s-5.9,0.2-8.9,0.2v-3.2h1.7c0.8,0,1.6-0.1,2.4-0.2
	c0.8-0.1,1.6-0.5,2.2-1c0.7-0.7,1.3-1.6,1.6-2.6c0.5-1.6,0.7-3.3,0.6-5v-51c0-1.4-0.1-2.9-0.4-4.3c-0.2-1-0.6-1.9-1.3-2.6
	c-0.6-0.6-1.4-1-2.2-1.2c-1.1-0.2-2.2-0.3-3.3-0.3h-1.3v-3.2c1.9,0,4.2,0.1,6.9,0.2c2.7,0.1,5.4,0.2,8.1,0.2c2.8,0,5.5-0.1,8.1-0.2
	s5.1-0.2,7.5-0.2c3.4,0,6.7,0.3,10.1,1c2.9,0.6,5.6,1.7,8,3.4c2.3,1.6,4.1,3.7,5.2,6.2c1.3,3.1,2,6.4,1.9,9.8c0,2.9-0.5,5.8-1.6,8.5
	c-1,2.5-2.5,4.7-4.3,6.6c-1.9,1.9-4.1,3.4-6.6,4.5c-2.6,1.2-5.3,1.9-8.2,2.1c-1.6,0.2-3.2,0.2-4.6,0.2h-4v-3.2h2.2
	c2,0,3.9-0.4,5.6-1.4c1.6-0.9,3-2.2,3.9-3.8c1.1-1.8,1.9-3.7,2.3-5.8c0.5-2.4,0.8-4.8,0.8-7.3c0-5.1-1.3-9.3-3.9-12.3
	c-2.6-3.1-6.7-4.6-12.2-4.7h-3.1V824.7z"/>
<path class="st0" d="M2421,773.2c0.1-1.5-0.2-3.1-0.7-4.5c-0.4-0.9-1-1.7-1.8-2.3c-0.8-0.5-1.7-0.8-2.6-0.8c-1-0.1-2.1-0.2-3.1-0.2
	h-1.3v-3.2c2.3,0,4.8,0.1,7.6,0.2s5.9,0.2,9.4,0.2c3.2,0,6.2-0.1,8.8-0.2c2.7-0.2,5.1-0.2,7.2-0.2v3.2h-1.3c-1.1,0-2.1,0.1-3.1,0.2
	c-1,0.1-1.9,0.4-2.7,0.8c-0.9,0.6-1.5,1.4-1.9,2.3c-0.6,1.4-0.8,3-0.7,4.5V810c0,3.1,0.3,6.3,1,9.3c0.6,2.6,1.8,5.1,3.4,7.3
	c1.7,2.1,3.8,3.7,6.2,4.7c3.1,1.2,6.3,1.8,9.6,1.7c7.1,0,12.2-2.1,15.4-6.3c3.2-4.2,4.9-9.9,4.9-17.1v-36.4c0.1-1.5-0.2-3.1-0.7-4.5
	c-0.4-0.9-1-1.7-1.8-2.3c-0.7-0.5-1.6-0.8-2.5-0.8c-0.9-0.1-1.8-0.2-2.7-0.2h-2.1v-3.2c2.1,0,4.3,0.1,6.5,0.2
	c2.2,0.1,4.3,0.2,6.5,0.2s4.1-0.1,6.2-0.2s4.1-0.2,6.2-0.2v3.2h-2.2c-0.8,0-1.5,0.1-2.3,0.2c-0.8,0.1-1.6,0.4-2.2,0.8
	c-0.8,0.6-1.3,1.4-1.7,2.3c-0.5,1.4-0.7,3-0.6,4.5v34.1c0.1,5.1-0.6,10.2-2.2,15.1c-1.3,3.6-3.4,6.9-6.1,9.6c-2.6,2.4-5.7,4.1-9.1,5
	c-3.7,1-7.4,1.5-11.2,1.4c-4.6,0.1-9.2-0.4-13.6-1.4c-3.6-0.8-7-2.4-10-4.7c-2.8-2.2-4.9-5-6.2-8.3c-1.5-3.9-2.2-8.1-2.1-12.2
	L2421,773.2z"/>
<path class="st0" d="M2535.5,778c-0.2-1.7-0.6-3.4-1.3-5c-0.6-1.6-1.5-3.1-2.6-4.4c-1.1-1.2-2.3-2.3-3.8-3c-1.6-0.8-3.3-1.2-5-1.1
	c-4.3,0-7.5,1.2-9.8,3.5c-2.2,2.3-3.4,5.7-3.4,9.9c-0.1,2.6,0.7,5.2,2.4,7.2c1.7,1.9,3.7,3.6,5.9,4.8c2.4,1.4,5,2.7,7.8,4
	c2.8,1.3,5.4,2.8,7.8,4.7c2.4,1.9,4.4,4.2,5.9,6.8c3,6.4,3.1,13.8,0.2,20.2c-1.4,2.7-3.3,5.1-5.7,7c-2.4,1.9-5.2,3.4-8.2,4.3
	c-3.2,1-6.5,1.5-9.8,1.4c-3,0-5.9-0.5-8.8-1.4c-2.8-0.9-5.6-2.1-8.2-3.4c-0.3-2.7-0.6-5.4-0.9-8.1c-0.3-2.7-0.6-5.4-0.9-8.1l3-0.6
	c0.3,2.2,0.8,4.4,1.7,6.5c0.8,2,1.9,3.8,3.3,5.4c2.9,3.3,7.2,5.2,11.6,5.1c1.7,0,3.4-0.3,5.1-0.9c1.5-0.5,3-1.4,4.2-2.4
	c1.2-1,2.2-2.3,2.8-3.8c0.7-1.6,1-3.4,1-5.1c0.1-2.7-0.7-5.4-2.4-7.6c-1.6-2-3.6-3.7-5.8-5.1c-2.3-1.4-4.8-2.8-7.5-4.1
	c-2.7-1.3-5.2-2.9-7.5-4.7c-2.4-1.9-4.3-4.2-5.8-6.8c-1.7-3.2-2.5-6.8-2.4-10.5c-0.1-3.2,0.5-6.4,1.8-9.3c1.1-2.7,2.8-5,4.9-7
	c2.2-1.9,4.7-3.4,7.5-4.3c3.1-1,6.3-1.5,9.5-1.5c0.7,0,1.8,0.1,3.1,0.2l4.4,0.4c1.5,0.2,3,0.3,4.4,0.5s2.6,0.4,3.4,0.4
	c0,2.5,0.1,5,0.3,7.6c0.2,2.6,0.4,5.1,0.8,7.7L2535.5,778z"/>
</svg>
